<?xml version="1.0" encoding="UTF-8" standalone="no"?>
<!-- Created with Inkscape (http://www.inkscape.org/) -->

<svg
   xmlns:dc="http://purl.org/dc/elements/1.1/"
   xmlns:cc="http://creativecommons.org/ns#"
   xmlns:rdf="http://www.w3.org/1999/02/22-rdf-syntax-ns#"
   xmlns:svg="http://www.w3.org/2000/svg"
   xmlns="http://www.w3.org/2000/svg"
   xmlns:sodipodi="http://sodipodi.sourceforge.net/DTD/sodipodi-0.dtd"
   xmlns:inkscape="http://www.inkscape.org/namespaces/inkscape"
   width="38.766994mm"
   height="11.951034mm"
   viewBox="0 0 34.890296 10.75593"
   version="1.1"
   id="svg3076"
   inkscape:export-filename="/home/christian/Dokumente/projekte/2022_10_17_Acosta_landingpage/acoster-webpage/images/acosta.png"
   inkscape:export-xdpi="212.53392"
   inkscape:export-ydpi="212.53392"
   inkscape:version="0.92.5 (2060ec1f9f, 2020-04-08)"
   sodipodi:docname="Acostɐ_2.svg">
  <defs
     id="defs3070" />
  <sodipodi:namedview
     id="base"
     pagecolor="#000000"
     bordercolor="#666666"
     borderopacity="1.0"
     inkscape:pageopacity="0"
     inkscape:pageshadow="2"
     inkscape:zoom="3.959798"
     inkscape:cx="27.908804"
     inkscape:cy="77.269046"
     inkscape:document-units="mm"
     inkscape:current-layer="g6071"
     showgrid="false"
     showguides="true"
     inkscape:guide-bbox="true"
     scale-x="0.9"
     fit-margin-top="0"
     fit-margin-left="0"
     fit-margin-right="0"
     fit-margin-bottom="0"
     inkscape:window-width="1870"
     inkscape:window-height="1016"
     inkscape:window-x="50"
     inkscape:window-y="27"
     inkscape:window-maximized="1">
    <sodipodi:guide
       position="-0.30289331,20.847172"
       orientation="0,1"
       id="guide3645"
       inkscape:locked="false" />
  </sodipodi:namedview>
  <metadata
     id="metadata3073">
    <rdf:RDF>
      <cc:Work
         rdf:about="">
        <dc:format>image/svg+xml</dc:format>
        <dc:type
           rdf:resource="http://purl.org/dc/dcmitype/StillImage" />
        <dc:title></dc:title>
      </cc:Work>
    </rdf:RDF>
  </metadata>
  <g
     inkscape:label="Ebene 1"
     inkscape:groupmode="layer"
     id="layer1"
     transform="translate(-136.79954,-125.84168)">
    <g
       style="display:inline"
       id="g6071"
       transform="translate(-8.6124698,-62.042876)">
      <g
         transform="translate(1.3959679,13.096876)"
         id="text1392"
         style="font-style:normal;font-weight:normal;font-size:10.58333302px;line-height:1.25;font-family:sans-serif;letter-spacing:0px;word-spacing:0px;fill:#ffffff;fill-opacity:1;stroke:none;stroke-width:0.26458332"
         aria-label="Acost[a:er]">
        <path
           style="fill:#ffffff;fill-opacity:1;stroke:none;stroke-width:0.99999994"
           d="m 654.13867,661.16797 -11.13281,29.16015 h 4.16016 l 2.65625,-7.48046 h 0.0244 l 1.15625,-3.28125 h 0.0108 l 5.35156,-14.51172 5.3711,14.51172 h 0.012 l 1.20508,3.28125 h 0.0134 l 2.65625,7.48046 h 4.10156 l -11.11328,-29.16015 z"
           transform="matrix(0.26458333,0,0,0.26458333,-26.112593,2.744217)"
           id="path1394"
           inkscape:connector-curvature="0"
           sodipodi:nodetypes="cccccccccccccccc" />
        <path
           inkscape:connector-curvature="0"
           id="path1396"
           style="fill:#ffffff;fill-opacity:1;stroke:none;stroke-width:0.26458332"
           d="m 156.14964,179.8282 v 0.88884 q -0.40307,-0.22221 -0.81132,-0.33073 -0.40307,-0.11369 -0.81648,-0.11369 -0.92501,0 -1.43661,0.58911 -0.5116,0.58394 -0.5116,1.64331 0,1.05937 0.5116,1.64848 0.5116,0.58394 1.43661,0.58394 0.41341,0 0.81648,-0.10852 0.40825,-0.11369 0.81132,-0.33589 v 0.87849 q -0.39791,0.18604 -0.82682,0.27906 -0.42375,0.093 -0.90434,0.093 -1.30741,0 -2.07739,-0.82165 -0.76998,-0.82166 -0.76998,-2.21692 0,-1.41593 0.77515,-2.22725 0.78031,-0.81132 2.13423,-0.81132 0.43925,0 0.85783,0.093 0.41858,0.0879 0.81132,0.26872 z" />
        <path
           inkscape:connector-curvature="0"
           id="path1398"
           style="fill:#ffffff;fill-opacity:1;stroke:none;stroke-width:0.26458332"
           d="m 160.04605,180.27262 q -0.76482,0 -1.20923,0.59945 -0.44442,0.59427 -0.44442,1.63297 0,1.0387 0.43925,1.63814 0.44442,0.59428 1.2144,0.59428 0.75964,0 1.20406,-0.59944 0.44441,-0.59945 0.44441,-1.63298 0,-1.02836 -0.44441,-1.62781 -0.44442,-0.60461 -1.20406,-0.60461 z m 0,-0.80615 q 1.24023,0 1.9482,0.80615 0.70796,0.80615 0.70796,2.23242 0,1.4211 -0.70796,2.23242 -0.70797,0.80615 -1.9482,0.80615 -1.24541,0 -1.95337,-0.80615 -0.7028,-0.81132 -0.7028,-2.23242 0,-1.42627 0.7028,-2.23242 0.70796,-0.80615 1.95337,-0.80615 z" />
        <path
           inkscape:connector-curvature="0"
           id="path1400"
           style="fill:#ffffff;fill-opacity:1;stroke:none;stroke-width:0.26458332"
           d="m 167.96804,179.77653 v 0.89916 q -0.40307,-0.2067 -0.83716,-0.31005 -0.43408,-0.10336 -0.89917,-0.10336 -0.70796,0 -1.06453,0.21704 -0.3514,0.21705 -0.3514,0.65113 0,0.33073 0.25322,0.52193 0.25321,0.18603 1.01802,0.35657 l 0.32556,0.0723 q 1.01286,0.21704 1.43661,0.61495 0.42891,0.39274 0.42891,1.10071 0,0.80615 -0.64079,1.27641 -0.63562,0.47025 -1.75183,0.47025 -0.46509,0 -0.97151,-0.093 -0.50127,-0.0879 -1.05937,-0.26872 V 184.2 q 0.5271,0.27388 1.0387,0.41341 0.51159,0.13436 1.01285,0.13436 0.6718,0 1.03353,-0.22738 0.36174,-0.23254 0.36174,-0.65112 0,-0.38757 -0.26355,-0.59428 -0.25839,-0.20671 -1.14205,-0.39791 l -0.33073,-0.0775 q -0.88367,-0.18604 -1.27641,-0.56844 -0.39274,-0.38758 -0.39274,-1.05937 0,-0.81649 0.57878,-1.26091 0.57877,-0.44441 1.64331,-0.44441 0.5271,0 0.99218,0.0775 0.46509,0.0775 0.85783,0.23255 z" />
        <path
           sodipodi:nodetypes="cccccscsccscscccccc"
           inkscape:connector-curvature="0"
           id="path1402"
           style="fill:#ffffff;fill-opacity:1;stroke:none;stroke-width:0.26458332"
           d="m 170.73273,174.78768 v 4.81831 h 1.95854 v 0.73898 h -1.95854 v 3.14192 c 0,0.47198 0.0637,0.77515 0.1912,0.90951 0.13091,0.13436 0.39446,0.20154 0.79065,0.20154 h 0.97669 v 0.79581 h -0.97669 c -0.7338,0 -1.24023,-0.13608 -1.51928,-0.40824 -0.27905,-0.27561 -0.41858,-0.77515 -0.41858,-1.49862 v -3.14192 h -0.69763 v -0.73898 h 0.69763 v -4.81831 z" />
      </g>
      <g
         aria-label="ɐ"
         style="font-style:normal;font-weight:normal;font-size:10.50529003px;line-height:1.25;font-family:sans-serif;letter-spacing:0px;word-spacing:0px;fill:#ffffff;fill-opacity:1;stroke:none;stroke-width:0.26263225"
         id="text6050">
        <path
           d="m 177.3323,195.60706 q 1.14389,0 1.58503,-0.26161 0.44114,-0.26161 0.44114,-0.89254 0,-0.50269 -0.33342,-0.79508 -0.32829,-0.29751 -0.89767,-0.29751 -0.78482,0 -1.26187,0.55912 -0.47192,0.55399 -0.47192,1.47731 v 0.21031 z m -1.88254,0.38984 v -3.27777 h 0.94383 v 0.87202 q 0.32317,-0.52321 0.80534,-0.76943 0.48218,-0.25135 1.17979,-0.25135 0.88229,0 1.40037,0.49757 0.52321,0.49243 0.52321,1.32342 0,0.96948 -0.65145,1.46191 -0.64632,0.49244 -1.93384,0.49244 h -1.32342 v 0.0923 q 0,0.65145 0.42576,1.01052 0.43088,0.35394 1.20544,0.35394 0.49243,0 0.95922,-0.11798 0.46679,-0.11798 0.89767,-0.35394 v 0.87202 q -0.51808,0.20005 -1.00539,0.29751 -0.48731,0.1026 -0.94896,0.1026 -1.24648,0 -1.86203,-0.64633 -0.61554,-0.64632 -0.61554,-1.95948 z"
           style="letter-spacing:-0.97451615px;fill:#ffffff;fill-opacity:1;stroke:none;stroke-width:0.26263225"
           id="path2961"
           inkscape:connector-curvature="0" />
      </g>
      <rect
         style="opacity:1;fill:#ffffff;fill-opacity:1;stroke:none;stroke-width:0.38695425;stroke-linecap:round;stroke-linejoin:round;stroke-miterlimit:4;stroke-dasharray:none;stroke-dashoffset:0;stroke-opacity:1"
         id="rect2964"
         width="3.3208241"
         height="1.134225"
         x="146.51271"
         y="197.35617"
         ry="0" />
    </g>
  </g>
</svg>
