<?xml version="1.0" encoding="UTF-8" standalone="no"?>
<!-- Created with Inkscape (http://www.inkscape.org/) -->

<svg
   xmlns:dc="http://purl.org/dc/elements/1.1/"
   xmlns:cc="http://creativecommons.org/ns#"
   xmlns:rdf="http://www.w3.org/1999/02/22-rdf-syntax-ns#"
   xmlns:svg="http://www.w3.org/2000/svg"
   xmlns="http://www.w3.org/2000/svg"
   xmlns:sodipodi="http://sodipodi.sourceforge.net/DTD/sodipodi-0.dtd"
   xmlns:inkscape="http://www.inkscape.org/namespaces/inkscape"
   width="500mm"
   height="100mm"
   viewBox="0 0 500 100"
   version="1.1"
   id="svg820"
   inkscape:version="0.92.5 (2060ec1f9f, 2020-04-08)"
   sodipodi:docname="amazonmusic.svg"
   inkscape:export-filename="/home/christian/Dokumente/projekte/2022_10_17_Acosta_landingpage/acoster-webpage/images/provider-logos/amazon_music.png"
   inkscape:export-xdpi="25.4"
   inkscape:export-ydpi="25.4">
  <defs
     id="defs814" />
  <sodipodi:namedview
     id="base"
     pagecolor="#ffffff"
     bordercolor="#666666"
     borderopacity="1.0"
     inkscape:pageopacity="0.0"
     inkscape:pageshadow="2"
     inkscape:zoom="0.49497475"
     inkscape:cx="950.53351"
     inkscape:cy="-0.33255382"
     inkscape:document-units="mm"
     inkscape:current-layer="layer1"
     showgrid="false"
     fit-margin-top="0"
     fit-margin-left="0"
     fit-margin-right="0"
     fit-margin-bottom="0"
     inkscape:window-width="1870"
     inkscape:window-height="1016"
     inkscape:window-x="50"
     inkscape:window-y="27"
     inkscape:window-maximized="1" />
  <metadata
     id="metadata817">
    <rdf:RDF>
      <cc:Work
         rdf:about="">
        <dc:format>image/svg+xml</dc:format>
        <dc:type
           rdf:resource="http://purl.org/dc/dcmitype/StillImage" />
        <dc:title />
      </cc:Work>
    </rdf:RDF>
  </metadata>
  <g
     inkscape:label="Ebene 1"
     inkscape:groupmode="layer"
     id="layer1"
     transform="translate(0.93420127,-43.883696)">
    <path
       style="fill:#001500;stroke-width:0.46705705;fill-opacity:1"
       d="m 94.343214,141.70742 c -4.207235,-0.51685 -10.817376,-1.74459 -14.778878,-2.74498 -13.64381,-3.44546 -27.801326,-10.57854 -39.002049,-19.65069 -4.161646,-3.37077 -5.113968,-4.486 -4.575155,-5.35782 0.486907,-0.78783 1.483123,-0.43527 7.744613,2.74078 29.480033,14.95333 61.704615,19.06257 93.814245,11.96304 4.63378,-1.02453 18.08737,-5.29882 22.78091,-7.23764 1.95547,-0.80777 3.14076,-0.1532 3.14076,1.73447 0,1.14895 -0.48749,1.68133 -3.26941,3.57056 -4.43232,3.01001 -13.43024,7.39964 -19.34634,9.43807 -12.43662,4.28515 -22.30997,5.88188 -35.76638,5.78416 -5.137628,-0.0374 -9.971671,-0.1453 -10.742316,-0.23995 z m 70.902036,-6.57701 c 0.1369,-0.70643 1.09353,-3.70143 2.12588,-6.65556 2.46269,-7.04729 2.77776,-9.24119 1.54526,-10.76017 -0.91853,-1.13204 -1.04349,-1.14963 -8.09493,-1.13959 -3.9391,0.005 -7.80242,0.14945 -8.58516,0.31967 -0.78275,0.17019 -1.72303,0.12418 -2.08953,-0.10232 -0.54983,-0.33982 -0.4767,-0.61371 0.41825,-1.56633 3.22233,-3.43002 14.00245,-5.44269 21.59621,-4.03204 3.62817,0.67397 4.34082,1.69736 3.97039,5.70162 -0.58989,6.37663 -3.77629,13.77691 -7.65037,17.76771 -2.09055,2.15352 -3.60519,2.37215 -3.236,0.46705 z m 205.29813,-25.20023 c -0.67745,-0.1042 -2.35885,-0.86089 -3.73645,-1.68149 -2.07301,-1.23482 -2.76732,-2.00951 -4.02804,-4.49437 l -1.52327,-3.00237 0.12206,-18.248727 0.12207,-18.24873 3.66398,-0.137208 c 2.33828,-0.0875 3.90631,0.06392 4.33379,0.418706 0.55968,0.464493 0.66231,3.200498 0.62412,16.636988 -0.0453,15.932905 -0.0357,16.100902 1.03736,18.231615 1.29901,2.579266 3.43209,3.849176 6.46557,3.849176 2.87176,0 6.87996,-1.09413 10.26145,-2.80113 l 2.79344,-1.410106 0.12246,-17.394016 0.12247,-17.394025 3.66396,-0.137208 c 2.29936,-0.08606 3.90842,0.06567 4.32029,0.407485 0.89397,0.741936 0.98624,42.88281 0.0958,43.77321 -0.75466,0.75466 -6.19172,0.73597 -6.79436,-0.0233 -0.25483,-0.32111 -0.60181,-1.35306 -0.77105,-2.29322 l -0.3077,-1.70939 -2.64416,1.59222 c -5.6697,3.41412 -12.34652,4.92703 -17.94387,4.06594 z m 46.9169,-0.11029 c -1.33195,-0.21174 -3.91508,-0.83857 -5.74031,-1.39298 -3.76304,-1.14299 -4.17419,-1.70746 -3.85288,-5.28993 0.23309,-2.59878 0.19125,-2.58906 5.12056,-1.18881 2.70871,0.76946 4.92347,1.03507 8.76254,1.05089 6.4321,0.0264 8.29526,-0.71418 9.68187,-3.848876 0.82176,-1.857702 0.84942,-2.242108 0.27068,-3.762668 -0.86159,-2.26375 -2.44668,-3.240531 -9.55338,-5.887041 -6.99718,-2.605724 -9.85862,-4.272097 -11.56568,-6.735405 -1.56729,-2.261588 -2.14579,-4.297543 -2.14006,-7.531662 0.0177,-9.981577 11.29883,-15.068583 24.96303,-11.256605 3.72302,1.038628 4.45701,1.781891 4.45701,4.513274 0,2.855672 -0.54216,3.080635 -4.9072,2.036171 -4.04065,-0.966847 -9.7915,-1.174177 -12.33501,-0.444708 -3.30289,0.947258 -4.98563,4.095144 -3.76474,7.042648 0.75039,1.811599 3.0456,3.135914 10.01484,5.778502 6.68691,2.53553 10.10564,4.759257 11.83234,7.696385 1.08671,1.848524 1.26154,2.663659 1.26154,5.882347 0,3.267532 -0.17365,4.049938 -1.38357,6.234278 -1.53379,2.76906 -4.12291,4.81676 -7.91364,6.25878 -2.70295,1.02821 -9.37258,1.45511 -13.20794,0.84541 z m -216.70103,-0.51373 c -6.33568,-1.25346 -11.60646,-7.13837 -13.46908,-15.038449 -0.91436,-3.878148 -0.90816,-12.438216 0.0119,-16.020135 1.67081,-6.506705 4.96338,-10.949249 9.9255,-13.392093 2.8699,-1.412853 3.47238,-1.534383 7.5651,-1.526076 3.89147,0.0082 4.81052,0.175872 7.35863,1.344913 7.03571,3.22785 11.33346,11.622812 11.33346,22.138048 0,4.061957 -1.22614,9.60099 -2.82988,12.783906 -3.85053,7.642006 -11.49347,11.372136 -19.89536,9.709886 z m 7.55073,-9.933826 c 2.3231,-2.323098 2.80123,-4.594044 2.77206,-13.166155 -0.021,-6.180078 -0.18265,-7.910716 -0.93412,-10.003535 -1.1302,-3.147525 -2.77773,-4.47777 -5.45877,-4.407472 -1.58635,0.04159 -2.20915,0.349283 -3.45197,1.705427 -2.2232,2.425952 -2.71941,4.71627 -2.70213,12.472052 0.0175,7.810637 0.81433,11.433095 2.99495,13.613693 1.96724,1.967256 4.68451,1.881476 6.77998,-0.21401 z m 273.78729,9.941356 c -6.21209,-0.97961 -11.25855,-4.75943 -13.90517,-10.415106 -1.7467,-3.732655 -2.30664,-6.812179 -2.29811,-12.639391 0.0173,-11.974597 4.44737,-19.001311 14.03002,-22.254617 2.62417,-0.890909 3.70016,-0.992438 8.38181,-0.790914 3.65812,0.157456 6.11593,0.513338 7.70645,1.115822 l 2.33527,0.88462 0.13924,2.912401 c 0.16823,3.520239 -0.0388,3.654955 -4.13622,2.689219 -3.84024,-0.905166 -6.54454,-0.905671 -10.03336,-0.001 -5.92374,1.534527 -8.29513,4.608019 -9.22219,11.952475 -0.3911,3.098599 -0.38663,5.083239 0.0177,7.857414 0.86321,5.922596 2.81057,8.788311 7.35489,10.823497 2.80025,1.25409 7.69724,1.32824 12.60162,0.19084 1.71901,-0.39866 3.31751,-0.60616 3.5522,-0.46112 0.73621,0.45501 0.50231,5.20388 -0.2956,6.00182 -1.8474,1.84738 -10.68187,3.00961 -16.22855,2.13493 z M 6.2128241,108.65235 c -2.7024744,-1.03517 -4.3816265,-2.50742 -5.82062207,-5.10344 -1.1993651,-2.16372 -1.32840475,-2.82857 -1.3263789,-6.833939 0.001956,-3.907692 0.15162969,-4.720676 1.2544109,-6.814381 1.50202017,-2.851688 3.93513107,-5.085523 7.12905967,-6.545173 2.3269918,-1.063436 9.2804383,-2.514387 12.1092103,-2.52678 2.802669,-0.01194 3.558734,-0.444534 3.555906,-2.033084 -0.0077,-4.308805 -2.337509,-7.301664 -5.684093,-7.301664 -3.357874,0 -5.75179,1.672291 -6.685946,4.670555 -0.200088,0.642207 -0.54579,1.285228 -0.7682298,1.428942 C 9.56933,77.856221 3.2408843,77.32352 1.2820994,76.861559 -0.11946633,76.531011 -0.096621,74.786374 1.349957,71.679684 c 2.2012452,-4.727429 6.5751225,-7.643227 12.953384,-8.635213 6.906186,-1.074121 13.011173,0.458935 16.761213,4.208975 2.984304,2.984315 3.261836,4.409469 3.261836,16.750047 0,11.152214 0.344608,13.339831 2.558651,16.242587 0.77445,1.01537 1.124998,1.92342 0.938457,2.43099 -0.317167,0.86301 -6.248601,6.01195 -7.461959,6.47756 -0.73492,0.28202 -4.252697,-2.87139 -5.255894,-4.71149 -0.470649,-0.86328 -0.603557,-0.81647 -2.470254,0.86997 -3.052618,2.75787 -5.610733,3.69896 -10.49421,3.86071 -2.8068822,0.093 -4.7765971,-0.0804 -5.9283518,-0.52147 z M 19.951896,99.164844 c 1.676498,-1.581105 2.852113,-5.229916 2.89608,-8.988675 l 0.0355,-3.035877 -2.335286,0.141644 c -4.823205,0.292544 -7.48434,1.607934 -8.937307,4.417664 -0.984556,1.903915 -0.961405,5.618885 0.04459,7.154224 1.764131,2.692396 5.618154,2.836886 8.296416,0.31102 z m 94.238214,9.750386 c -5.52235,-1.80302 -7.91248,-5.48387 -7.92212,-12.200259 -0.005,-3.216722 0.2044,-4.413093 1.10155,-6.305273 1.41106,-2.976008 4.02547,-5.471979 7.29065,-6.960318 2.5452,-1.160168 9.4425,-2.614361 12.4,-2.614361 2.62588,0 3.01296,-0.351528 3.01217,-2.735542 -4e-4,-1.192707 -0.36821,-2.901243 -0.81735,-3.796754 -2.16576,-4.318121 -8.7883,-3.627336 -10.89557,1.136492 -0.49928,1.128699 -1.13437,2.127726 -1.41127,2.220032 -0.90728,0.302415 -8.5785,-0.66539 -9.19783,-1.160395 -1.32316,-1.057599 1.09428,-6.705223 3.93945,-9.203304 5.21273,-4.576849 15.54316,-6.005081 22.01246,-3.043341 3.91301,1.791433 5.2726,2.989257 6.58132,5.798225 1.1878,2.549417 1.22223,2.897918 1.45805,14.754567 0.25219,12.680247 0.44763,13.879445 2.5459,15.620871 1.5239,1.26471 0.8541,2.57835 -2.9526,5.79077 -2.02619,1.70989 -3.89514,3.10886 -4.1532,3.10886 -0.25808,0 -1.62286,-1.24608 -3.03287,-2.76904 l -2.56364,-2.76904 -1.25095,1.30571 c -0.68803,0.71815 -2.44694,1.89848 -3.9087,2.62297 -2.21756,1.09908 -3.35395,1.33913 -6.86126,1.44929 -2.31194,0.0727 -4.73031,-0.0399 -5.37419,-0.25016 z m 12.61357,-9.323396 c 1.8544,-1.36873 3.23833,-5.344855 3.25505,-9.351935 l 0.0143,-3.439204 -2.21852,0.316744 c -3.93043,0.561143 -5.69902,1.199337 -7.35652,2.654632 -2.89915,2.545505 -3.29816,6.8501 -0.89922,9.701093 1.73568,2.062736 4.50909,2.108426 7.20486,0.11862 z m -82.560985,8.720836 c -0.900705,-0.9007 -0.82605,-43.034991 0.07759,-43.784956 0.424391,-0.352207 2.26261,-0.494757 5.254393,-0.407465 l 4.60164,0.134244 0.233529,3.035877 0.233529,3.035867 0.805103,-1.471055 c 1.11804,-2.042862 4.208641,-4.579278 6.368164,-5.226293 5.438794,-1.629489 10.798568,0.46578 13.191881,5.157056 l 0.927244,1.817559 1.497286,-2.20109 c 4.128779,-6.069542 13.174967,-6.973597 18.317901,-1.830664 1.243394,1.243405 2.232322,2.762759 2.538618,3.900239 0.327677,1.216929 0.459326,8.158099 0.379455,20.00814 l -0.122292,18.144791 -4.951136,0.13186 c -3.69435,0.0984 -5.082783,-0.0268 -5.469707,-0.49295 -0.351159,-0.42312 -0.562134,-5.6932 -0.653545,-16.325071 L 87.337363,76.238508 86.205073,75.03384 c -0.839195,-0.892834 -1.60083,-1.204679 -2.9423,-1.204679 -3.086734,0 -4.433414,1.032595 -5.786689,4.437047 -0.20422,0.51376 -0.485996,7.554638 -0.626169,15.646413 l -0.254863,14.712299 -4.835909,0.13363 c -3.164871,0.0875 -5.061212,-0.0533 -5.487919,-0.40748 -0.533053,-0.44238 -0.652012,-3.26034 -0.652012,-15.444753 0,-16.889581 -0.124358,-17.657221 -3.059116,-18.883434 -1.327288,-0.554576 -2.022801,-0.59746 -3.229732,-0.199137 -3.756433,1.23974 -4.102046,2.828054 -4.422106,20.322404 l -0.264886,14.47877 -4.91275,0.13146 c -3.42292,0.0916 -5.08717,-0.043 -5.48792,-0.44371 z m 185.845595,-0.0765 c -0.39738,-0.47882 -0.50915,-6.41788 -0.42,-22.317068 l 0.1214,-21.66464 h 5.13762 5.13764 l 0.23352,3.502924 c 0.1657,2.485409 0.33026,3.160115 0.56656,2.322765 0.4932,-1.747735 3.48165,-5.026879 5.53676,-6.075327 1.30532,-0.665925 2.73435,-0.916799 5.2042,-0.913608 6.27165,0.0082 9.99824,3.3 11.09827,9.803812 0.32554,1.924719 0.46462,9.018961 0.37999,19.382865 l -0.13351,16.346997 h -5.37116 -5.37115 L 251.9749,92.978488 c -0.15815,-10.596085 -0.40801,-15.949601 -0.77409,-16.585735 -2.40416,-4.177753 -7.00649,-3.642191 -9.18264,1.068552 -0.95911,2.076163 -1.03286,3.058596 -1.25264,16.684834 l -0.23353,14.478771 -4.95113,0.13186 c -3.79385,0.10099 -5.07774,-0.0207 -5.49264,-0.52058 z m 54.42498,0.31087 c -0.17125,-0.17125 -0.31137,-10.132106 -0.31137,-22.135239 0,-24.517111 -0.35482,-22.390867 3.73646,-22.390867 3.1784,0 3.70047,0.311072 4.03519,2.404334 0.16141,1.009413 0.42295,1.774634 0.58119,1.700486 0.15825,-0.07412 2.07421,-1.036146 4.2577,-2.137762 4.56571,-2.303484 10.37141,-3.562176 14.21478,-3.081809 2.96797,0.370942 6.5694,2.26339 7.85355,4.126798 0.54011,0.78375 1.03638,1.49888 1.10283,1.589168 0.0665,0.09028 1.37037,-0.607096 2.89759,-1.549752 6.44814,-3.980017 16.0758,-5.430268 20.75428,-3.12629 1.2205,0.601053 2.8477,1.855452 3.61603,2.787547 2.73524,3.318323 2.8291,4.152039 2.69432,23.930274 l -0.12246,17.960962 h -3.96998 -3.96999 l -0.23353,-16.580525 c -0.21679,-15.392524 -0.30045,-16.712227 -1.16763,-18.418622 -1.40223,-2.759197 -3.01963,-3.736411 -6.06618,-3.665074 -3.47236,0.08132 -7.10221,0.947578 -10.10713,2.412117 l -2.50897,1.222827 -0.12274,17.006839 c -0.0837,11.603148 -0.28737,17.205288 -0.64101,17.631388 -0.67067,0.80813 -6.98743,0.86013 -7.78346,0.0641 -0.41388,-0.41387 -0.56315,-4.78095 -0.57073,-16.697274 -0.009,-14.841962 -0.0814,-16.293624 -0.8974,-18.090852 -1.1633,-2.562223 -3.14246,-3.609178 -6.66488,-3.525653 -3.1903,0.07556 -5.74214,0.706257 -9.35827,2.312553 l -2.68559,1.192944 V 90.61356 c 0,12.69587 -0.14493,17.26886 -0.56046,17.68438 -0.59282,0.59283 -7.44522,0.80613 -8.00224,0.24911 z m 163.73616,-0.23195 c -0.82232,-0.82232 -0.83878,-42.911969 -0.0171,-43.733651 0.63049,-0.630473 6.79644,-0.768041 7.73448,-0.172557 0.46247,0.293593 0.56249,5.06755 0.46704,22.294824 l -0.1214,21.921224 -3.7427,0.13386 c -2.51069,0.0898 -3.93283,-0.0563 -4.32029,-0.4437 z m -298.0929,-5.9677 v -5.109887 l 2.50062,-3.647442 c 1.37534,-2.006072 5.15624,-7.430575 8.402,-12.054436 l 5.90136,-8.407028 -7.58464,-0.233538 -7.58464,-0.233528 v -4.203509 -4.203519 h 14.7123 14.71229 l 0.13396,3.747765 0.13394,3.747745 -7.71643,10.93282 c -4.24405,6.013048 -7.66213,10.98712 -7.59574,11.053505 0.0663,0.06629 1.90217,0.34389 4.07955,0.61672 4.57018,0.572631 9.21373,2.00214 10.95636,3.372892 1.16497,0.916364 1.20486,1.109994 1.07615,5.22472 l -0.13367,4.27309 -1.40117,-0.0573 c -0.77064,-0.0315 -2.97749,-0.64653 -4.9041,-1.36671 -3.15176,-1.17815 -4.11161,-1.3126 -9.57468,-1.34121 -5.70315,-0.0298 -6.33028,0.0602 -10.33069,1.48348 -2.34241,0.83339 -4.6018,1.51526 -5.02085,1.51526 -0.65809,0 -0.76192,-0.69633 -0.76192,-5.10989 z M 449.12444,55.456162 c -3.02406,-1.749105 -3.21104,-6.502762 -0.34703,-8.822686 0.66024,-0.534822 1.83525,-0.810463 3.48419,-0.817349 2.13442,-0.0093 2.68197,0.183613 3.8532,1.354857 1.14643,1.146425 1.36526,1.741127 1.36526,3.710408 0,3.393046 -1.3294,4.818458 -4.7082,5.04825 -1.59661,0.10857 -2.94333,-0.06619 -3.64742,-0.47348 z"
       id="path1376"
       inkscape:connector-curvature="0" />
  </g>
</svg>
