<?xml version="1.0" encoding="UTF-8" standalone="no"?>
<svg
   xmlns:dc="http://purl.org/dc/elements/1.1/"
   xmlns:cc="http://creativecommons.org/ns#"
   xmlns:rdf="http://www.w3.org/1999/02/22-rdf-syntax-ns#"
   xmlns:svg="http://www.w3.org/2000/svg"
   xmlns="http://www.w3.org/2000/svg"
   xmlns:sodipodi="http://sodipodi.sourceforge.net/DTD/sodipodi-0.dtd"
   xmlns:inkscape="http://www.inkscape.org/namespaces/inkscape"
   viewBox="0 0 499.99999 100"
   version="1.1"
   id="svg10"
   sodipodi:docname="Anghami-OLCuNDGBr_brandlogos.net.svg"
   inkscape:export-filename="/home/christian/Dokumente/projekte/2022_10_17_Acosta_landingpage/acoster-webpage/images/provider-logos/anghami.png"
   inkscape:export-xdpi="96"
   inkscape:export-ydpi="96"
   inkscape:version="0.92.5 (2060ec1f9f, 2020-04-08)"
   width="500"
   height="100">
  <metadata
     id="metadata14">
    <rdf:RDF>
      <cc:Work
         rdf:about="">
        <dc:format>image/svg+xml</dc:format>
        <dc:type
           rdf:resource="http://purl.org/dc/dcmitype/StillImage" />
        <dc:title>Anghami logo - Brandlogos.net</dc:title>
      </cc:Work>
    </rdf:RDF>
  </metadata>
  <sodipodi:namedview
     pagecolor="#ffffff"
     bordercolor="#cccccc"
     borderopacity="1"
     objecttolerance="10"
     gridtolerance="10"
     guidetolerance="10"
     inkscape:pageopacity="0"
     inkscape:pageshadow="2"
     inkscape:window-width="1720"
     inkscape:window-height="1016"
     id="namedview12"
     showgrid="false"
     inkscape:zoom="1.1371135"
     inkscape:cx="129.6031"
     inkscape:cy="54.008755"
     inkscape:window-x="200"
     inkscape:window-y="27"
     inkscape:window-maximized="0"
     inkscape:current-layer="svg10"
     fit-margin-top="0"
     fit-margin-left="0"
     fit-margin-right="0"
     fit-margin-bottom="0" />
  <defs
     id="defs4">
    <style
       id="style2">.a{fill:#1b1c1d;}</style>
  </defs>
  <title
     id="title6">Anghami logo - Brandlogos.net</title>
  <path
     class="a"
     d="m 217.00613,75.91447 a 8.2734577,8.2734577 0 0 0 8.24352,-8.283438 19.66069,19.66069 0 1 1 11.27745,-17.784441 v 17.814382 a 19.62077,19.62077 0 0 1 -19.55091,19.64073 z m -8.2535,-26.097819 a 8.2435177,8.2435177 0 1 0 8.2535,-8.293417 8.2834377,8.2834377 0 0 0 -8.2535,8.293417 z m 68.80243,0 a 19.55091,19.55091 0 1 1 39.10182,0 V 69.058179 H 305.38941 V 49.846591 a 8.2435177,8.2435177 0 1 0 -8.2535,8.283438 8.123757,8.123757 0 0 0 4.99003,-1.716568 v 12.415177 a 19.071867,19.071867 0 0 1 -4.99003,0.658683 19.62077,19.62077 0 0 1 -19.54092,-19.64073 z m -160.40926,0 a 19.550909,19.550909 0 1 1 39.10181,0 V 69.058179 H 144.9502 V 49.846591 a 8.2435177,8.2435177 0 1 0 -8.24351,8.283438 8.143717,8.143717 0 0 0 4.99002,-1.716568 v 12.415177 a 19.151708,19.151708 0 0 1 -4.99002,0.658683 19.63075,19.63075 0 0 1 -19.55091,-19.64073 z M 364.98026,69.078139 V 46.842598 a 5.269464,5.269464 0 1 0 -10.53892,0 V 69.108079 H 343.14393 V 46.842598 a 5.26947,5.26947 0 1 0 -10.53894,0 v 22.265481 h -11.2974 V 46.842598 a 16.636736,16.636736 0 0 1 16.57685,-16.646717 16.447115,16.447115 0 0 1 10.91817,4.14172 16.546915,16.546915 0 0 1 27.44513,12.504997 v 22.265481 z m -102.60485,0 V 46.842598 a 5.269464,5.269464 0 1 0 -10.53892,0 V 69.108079 H 240.51912 V 19.457353 h 11.30739 v 11.606793 a 16.357295,16.357295 0 0 1 5.26947,-0.868265 16.636736,16.636736 0 0 1 16.56687,16.646717 v 22.265481 z m -79.70063,0 V 46.842598 a 5.269464,5.269464 0 1 0 -10.52896,0 V 69.108079 H 160.85839 V 46.842598 a 16.576855,16.576855 0 1 1 33.14374,0 v 22.265481 z m 198.054,0 V 32.07213 h 11.30739 v 37.035949 z m -1.14771,-46.616792 a 6.8263512,6.8263512 0 0 1 6.80639,-6.836332 v 0 a 6.8363312,6.8363312 0 1 1 -6.80639,6.836332 z M 2.0122144e-5,49.966352 a 49.965099,49.965099 0 1 1 99.930197877856,0 V 95.415479 L 93.94219,94.307691 V 49.966352 a 43.972081,43.972081 0 1 0 -30.439141,41.91619 l 10.459088,1.996007 A 49.990048,49.990048 0 0 1 2.0122144e-5,49.966352 Z M 84.830407,92.611084 V 49.966352 A 34.93016,34.93016 0 1 0 63.503049,82.132036 V 88.50929 A 40.858306,40.858306 0 1 1 90.818434,49.966352 v 43.75252 z M 75.848366,90.884535 V 49.966352 a 25.768478,25.768478 0 1 0 -12.245516,21.9561 v 6.756494 A 31.786445,31.786445 0 1 1 81.756555,49.966352 V 92.032246 Z M 66.756545,89.197909 V 49.966352 a 16.716576,16.716576 0 1 0 -3.153695,9.780444 v 8.393219 a 22.694623,22.694623 0 1 1 9.051901,-18.173663 v 40.369287 z"
     id="path8"
     inkscape:connector-curvature="0"
     style="fill:#000000;stroke-width:0.9980045;fill-opacity:1" />
</svg>
