<?xml version="1.0" encoding="UTF-8" standalone="no"?>
<!-- Generator: Adobe Illustrator 23.0.6, SVG Export Plug-In . SVG Version: 6.00 Build 0)  -->

<svg
   xmlns:dc="http://purl.org/dc/elements/1.1/"
   xmlns:cc="http://creativecommons.org/ns#"
   xmlns:rdf="http://www.w3.org/1999/02/22-rdf-syntax-ns#"
   xmlns:svg="http://www.w3.org/2000/svg"
   xmlns="http://www.w3.org/2000/svg"
   xmlns:sodipodi="http://sodipodi.sourceforge.net/DTD/sodipodi-0.dtd"
   xmlns:inkscape="http://www.inkscape.org/namespaces/inkscape"
   version="1.1"
   id="Layer_1"
   x="0px"
   y="0px"
   viewBox="0 0 499.99998 99.999996"
   xml:space="preserve"
   sodipodi:docname="Apple_Music_logo.svg"
   width="500"
   height="100"
   inkscape:version="0.92.5 (2060ec1f9f, 2020-04-08)"
   inkscape:export-filename="/home/christian/Dokumente/projekte/2022_10_17_Acosta_landingpage/acoster-webpage/images/provider-logos/apple-music.png"
   inkscape:export-xdpi="96"
   inkscape:export-ydpi="96"><metadata
   id="metadata9"><rdf:RDF><cc:Work
       rdf:about=""><dc:format>image/svg+xml</dc:format><dc:type
         rdf:resource="http://purl.org/dc/dcmitype/StillImage" /><dc:title /></cc:Work></rdf:RDF></metadata><defs
   id="defs7" /><sodipodi:namedview
   pagecolor="#ffffff"
   bordercolor="#cccccc"
   borderopacity="1"
   objecttolerance="10"
   gridtolerance="10"
   guidetolerance="10"
   inkscape:pageopacity="0"
   inkscape:pageshadow="2"
   inkscape:window-width="1870"
   inkscape:window-height="1016"
   id="namedview5"
   showgrid="false"
   inkscape:zoom="1.8789076"
   inkscape:cx="207.98206"
   inkscape:cy="-6.3783064"
   inkscape:window-x="50"
   inkscape:window-y="27"
   inkscape:window-maximized="1"
   inkscape:current-layer="Layer_1" />
<path
   d="M 173.83007,97.853036 V 30.73887 h -0.49714 L 146.48726,97.853036 H 136.04728 L 109.20162,30.73887 h -0.49715 V 97.853036 H 96.275924 V 6.8760553 H 112.18447 L 141.0187,79.458783 h 0.49714 L 170.35008,6.8760553 h 16.40568 V 97.853036 Z m 83.02271,0 H 243.92709 V 86.418771 h -0.49714 c -3.47999,7.954271 -10.43998,12.428549 -20.38282,12.428549 -14.41712,0 -22.86853,-9.445698 -22.86853,-24.857099 V 31.236012 h 13.42283 v 40.268499 c 0,9.94284 4.97142,15.411402 13.91998,15.411402 9.94284,0 15.4114,-6.959988 15.4114,-17.399969 V 31.236012 h 13.42283 z m 36.78851,-67.611308 c 15.4114,0 24.8571,8.451413 25.35424,20.879963 h -12.42855 c -0.99428,-6.462846 -5.46856,-10.439982 -12.92569,-10.439982 -7.45713,0 -12.42855,3.479994 -12.42855,8.948556 0,3.977135 2.98285,6.959987 9.94284,8.451413 l 10.43998,2.48571 c 13.42283,2.982852 18.39425,8.451414 18.39425,17.897111 0,11.931407 -10.93712,20.382821 -26.34852,20.382821 -16.40569,0 -26.34853,-7.954272 -27.34281,-20.879963 h 13.42283 c 0.99429,6.959988 5.96571,10.439982 13.91998,10.439982 7.95427,0 12.92569,-3.479994 12.92569,-8.948556 0,-4.474278 -2.48571,-6.959988 -9.4457,-8.451414 L 286.6813,68.52166 c -12.42855,-2.982852 -18.39425,-8.948556 -18.39425,-18.891395 0,-11.434266 9.94284,-19.388537 25.35424,-19.388537 z m 36.29136,-16.405686 c 0,-4.4742766 3.48,-7.9542707 7.95427,-7.9542707 4.47428,0 7.95428,3.4799941 7.95428,7.9542707 0,4.474278 -3.48,7.954272 -7.95428,7.954272 -4.47427,0 -7.95427,-3.479994 -7.95427,-7.954272 z m 0.99429,17.39997 h 13.42283 v 66.617024 h -13.42283 z m 70.09702,22.86853 c -1.49143,-6.959987 -6.46285,-12.925691 -15.41141,-12.925691 -10.43998,0 -17.39997,8.948556 -17.39997,22.868531 0,14.417117 6.95999,22.868531 17.39997,22.868531 8.45142,0 13.42284,-4.474278 15.41141,-12.42855 h 12.92569 c -1.49143,13.919976 -12.42855,23.862815 -28.3371,23.862815 -18.89139,0 -30.8228,-12.925691 -30.8228,-34.302796 0,-20.879963 11.93141,-34.302796 30.8228,-34.302796 16.90283,0 26.84567,10.937123 28.3371,23.862814 z M 55.013141,15.82461 C 51.533147,19.801746 46.064585,23.28174 40.596023,22.784598 39.601739,16.818894 42.584591,10.853191 45.567443,7.3731972 49.047437,2.8989195 55.013141,-0.08393238 59.98456,-0.08393238 60.481702,5.3846293 58.493134,11.350333 55.013141,15.82461 Z m 4.971419,7.954272 c 2.982852,0 11.931408,0.994284 17.897111,9.942839 -0.497142,0.497142 -10.439981,6.462846 -10.439981,18.891395 0,14.91426 12.925691,19.885679 12.925691,19.885679 0,0.497142 -1.988568,6.959988 -6.462845,13.919976 -3.977136,5.965703 -8.451414,11.931407 -14.91426,11.931407 -6.462845,0 -8.451413,-3.977136 -15.908543,-3.977136 -7.457129,0 -9.942839,3.977136 -15.908543,3.977136 -6.462846,0 -11.434265,-6.462846 -15.411401,-12.428549 C 3.3103749,73.493079 -3.1524708,51.121691 5.7960847,36.207431 9.7732205,28.750302 17.727492,23.778882 25.681764,23.778882 c 6.462846,0 12.428549,4.474278 15.908543,4.474278 3.479994,0 10.439982,-4.97142 18.394253,-4.474278 z"
   id="path2"
   inkscape:connector-curvature="0"
   style="stroke-width:4.97141981;fill:#000000;fill-opacity:1" />
</svg>