<?xml version="1.0" encoding="UTF-8" standalone="no"?>
<svg
   xmlns:dc="http://purl.org/dc/elements/1.1/"
   xmlns:cc="http://creativecommons.org/ns#"
   xmlns:rdf="http://www.w3.org/1999/02/22-rdf-syntax-ns#"
   xmlns:svg="http://www.w3.org/2000/svg"
   xmlns="http://www.w3.org/2000/svg"
   xmlns:sodipodi="http://sodipodi.sourceforge.net/DTD/sodipodi-0.dtd"
   xmlns:inkscape="http://www.inkscape.org/namespaces/inkscape"
   viewBox="0 0 500 100"
   height="100"
   width="500"
   xml:space="preserve"
   id="svg2"
   version="1.1"
   sodipodi:docname="Bandcamp-logotype-color.svg"
   inkscape:export-filename="/home/christian/Dokumente/projekte/2022_10_17_Acosta_landingpage/acoster-webpage/images/provider-logos/bandcamp.png"
   inkscape:export-xdpi="96"
   inkscape:export-ydpi="96"
   inkscape:version="0.92.5 (2060ec1f9f, 2020-04-08)"><sodipodi:namedview
     pagecolor="#ffffff"
     bordercolor="#cccccc"
     borderopacity="1"
     objecttolerance="10"
     gridtolerance="10"
     guidetolerance="10"
     inkscape:pageopacity="0"
     inkscape:pageshadow="2"
     inkscape:window-width="1870"
     inkscape:window-height="1016"
     id="namedview14"
     showgrid="false"
     inkscape:zoom="1.8151614"
     inkscape:cx="139.68248"
     inkscape:cy="75.003999"
     inkscape:window-x="50"
     inkscape:window-y="27"
     inkscape:window-maximized="1"
     inkscape:current-layer="g827"
     fit-margin-top="0"
     fit-margin-left="0"
     fit-margin-right="0"
     fit-margin-bottom="0" /><metadata
     id="metadata8"><rdf:RDF><cc:Work
         rdf:about=""><dc:format>image/svg+xml</dc:format><dc:type
           rdf:resource="http://purl.org/dc/dcmitype/StillImage" /><dc:title /></cc:Work></rdf:RDF></metadata><defs
     id="defs6" /><g
     transform="matrix(1.3333333,0,0,-1.3333333,0,99.999997)"
     id="g10"><g
       transform="scale(0.1)"
       id="g12"><g
         id="g827"
         transform="translate(0,80.478132)"><path
           inkscape:connector-curvature="0"
           d="m 949.19171,411.36148 c -60.38299,0 -91.23415,-47.52644 -91.23415,-119.1225 0,-67.67833 33.36068,-118.47196 91.23415,-118.47196 65.44759,0 89.98319,59.89223 89.98319,118.47196 -0.046,61.17307 -30.8816,119.1225 -90.00345,119.1225 M 788.74946,589.04371 h 71.72522 V 417.22125 h 1.26869 c 19.50387,32.53515 60.40071,52.72021 96.8964,52.72021 102.54343,0 152.26793,-80.73771 152.26793,-179.02688 0,-90.44635 -44.0369,-175.71513 -140.32048,-175.71513 -44.04704,0 -91.23669,11.04139 -112.63472,55.31431 h -1.2459 v -46.23268 h -67.9622 v 464.7525 l 0.005,0.0101"
           style="fill:#000000;fill-opacity:1;fill-rule:nonzero;stroke:none;stroke-width:0.25323123"
           id="path14" /><path
           inkscape:connector-curvature="0"
           d="m 1359.5833,237.54584 c 0,-46.85765 -49.0838,-63.79857 -80.5402,-63.79857 -25.1788,0 -66.0883,9.79701 -66.0883,42.97309 0,39.06598 27.6985,50.79059 58.542,56.00209 31.4463,5.85217 66.0579,5.18364 88.0865,20.15467 z m 306.9492,232.39562 c -42.786,0 -79.9147,-22.77815 -101.3128,-59.90184 l -1.2535,1.32186 v 49.45606 h -67.9546 V 174.21803 c -40.9095,-0.46392 -44.7206,-0.46392 -47.8404,-0.46392 -13.2085,0 -16.9943,7.16188 -16.9943,25.38947 V 372.3031 c 0,70.92753 -66.6885,97.63836 -130.2597,97.63836 -71.7302,0 -142.8173,-25.3763 -147.8338,-111.97125 h 71.7125 c 3.1578,36.45517 31.4539,53.39127 71.7278,53.39127 28.9392,0 67.3266,-7.18164 67.3266,-45.57656 0,-43.60895 -45.9337,-37.74411 -97.5295,-47.52643 -60.4033,-7.13606 -125.2051,-20.84347 -125.2051,-104.76962 0,-65.76415 52.8443,-98.28942 111.3533,-98.28942 38.3899,0 84.3134,12.36882 112.6449,40.95812 5.6394,-30.56982 26.4272,-40.95812 55.3639,-40.95812 11.9525,0 34.599,4.54145 146.8108,8.44577 v 0.66372 h 0.4457 v 198.49758 c 0,49.48645 30.8385,88.54483 78.6486,88.54483 42.1554,0 62.3075,-22.79334 63.5509,-75.50595 V 124.29906 h 71.7581 v 231.06287 c 0.1393,75.49583 -44.556,114.56941 -115.0429,114.56941"
           style="fill:#000000;fill-opacity:1;fill-rule:nonzero;stroke:none;stroke-width:0.25323123"
           id="path16" /><path
           inkscape:connector-curvature="0"
           d="m 1990.6204,173.75411 c 64.1713,0 91.2417,60.54505 91.2417,119.14074 0,74.17396 -34.6015,118.46663 -89.9857,118.46663 -67.3291,0 -91.2443,-61.84413 -91.2443,-122.3664 0,-57.93652 27.6757,-115.22806 90.0009,-115.22806 m 160.4321,-49.46796 h -67.9647 v 45.56086 h -1.2434 c -18.8707,-38.40531 -59.7954,-54.66047 -100.6847,-54.66047 -102.5434,0 -152.2654,78.7658 -152.2654,179.63768 0,121.71813 69.8513,175.09421 140.9612,175.09421 40.8791,0 86.172,-15.63197 108.2006,-52.71009 h 1.2788 v 171.80727 h 71.7202 v -464.74035 0.0109"
           style="fill:#000000;fill-opacity:1;fill-rule:nonzero;stroke:none;stroke-width:0.25323123"
           id="path18" /><path
           inkscape:connector-curvature="0"
           d="m 2436.1149,348.20308 c -5.6699,41.00827 -34.6066,63.15334 -74.2423,63.15334 -37.144,0 -89.3552,-20.19013 -89.3552,-122.38413 0,-55.98461 23.8999,-115.22502 86.205,-115.22502 41.5197,0 70.454,28.67363 77.3925,76.84479 h 71.7227 c -13.2162,-87.22221 -65.4274,-135.39261 -149.1152,-135.39261 -101.9383,0 -157.9328,74.83565 -157.9328,173.77284 0,101.5356 53.4825,180.94892 160.4473,180.94892 75.5009,0 139.7001,-39.05079 146.6007,-121.72066 h -71.6062 l -0.1165,0.003"
           style="fill:#000000;fill-opacity:1;fill-rule:nonzero;stroke:none;stroke-width:0.25323123"
           id="path20" /><path
           inkscape:connector-curvature="0"
           d="m 2754.5481,237.54584 c 0,-46.85765 -49.0762,-63.79857 -80.5529,-63.79857 -25.1458,0 -66.0427,9.79701 -66.0427,42.97309 0,39.06598 27.7035,50.79059 58.4965,56.00209 31.4766,5.85217 66.0933,5.18364 88.0991,20.15467 z m 499.6252,232.39562 c -47.2023,0 -78.0205,-21.49173 -101.9255,-55.98182 -14.4849,38.38479 -51.6086,55.98182 -91.2646,55.98182 -51.5832,0 -78.6536,-22.77815 -100.0263,-55.98182 h -1.8993 v 46.8579 h -67.9925 V 174.21803 c -40.8969,-0.46392 -44.6954,-0.46392 -47.8607,-0.46392 -13.1934,0 -16.9665,7.16188 -16.9665,25.38947 V 372.3031 c 0,70.92753 -66.6758,97.63836 -130.2622,97.63836 -71.7151,0 -142.8224,-25.3763 -147.8617,-111.97125 h 71.7404 c 3.1401,36.45517 31.4766,53.39127 71.7404,53.39127 28.9443,0 67.3089,-7.18164 67.3089,-45.57656 0,-43.60895 -45.9362,-37.74411 -97.5194,-47.52643 -60.4209,-7.13606 -125.2228,-20.84347 -125.2228,-104.76962 0,-65.76415 52.8493,-98.28942 111.3711,-98.28942 38.3898,0 84.3007,12.36882 112.6372,40.95812 5.6471,-30.56982 26.4121,-40.95812 55.3817,-40.95812 11.9272,0 34.5914,4.54145 145.7852,8.44577 v 0.66372 h 1.4688 v 199.80932 c 0,55.97423 33.9836,87.23309 71.1073,87.23309 43.4038,0 57.2556,-24.72043 57.2556,-70.97058 V 124.29906 h 71.7151 v 197.21598 c 0,56.64023 20.7649,89.83125 69.2334,89.83125 55.9894,0 59.1295,-37.09838 59.1295,-90.49472 V 124.30083 h 71.7404 v 232.35764 c 0.025,82.03173 -40.2131,113.27287 -108.7628,113.27287"
           style="fill:#000000;fill-opacity:1;fill-rule:nonzero;stroke:none;stroke-width:0.25323123"
           id="path22" /><path
           inkscape:connector-curvature="0"
           d="m 3588.2866,411.36148 c -60.3956,0 -91.2392,-47.52644 -91.2392,-119.1225 0,-67.67833 33.3506,-118.47196 91.2392,-118.47196 65.435,0 89.9984,59.89223 89.9984,118.47196 0,61.17307 -30.8942,119.1225 -89.9984,119.1225 m -160.4473,49.45606 h 67.9673 v -45.56136 h 1.2661 c 20.1319,38.38985 59.1295,54.68528 100.6595,54.68528 102.5586,0 152.2679,-80.73771 152.2679,-179.02688 0,-90.44635 -44.0369,-175.71513 -140.2901,-175.71513 -41.5299,0 -86.2252,15.61424 -108.8641,52.68982 h -1.2662 V 0 h -71.7404 v 460.78969 0.0279"
           style="fill:#000000;fill-opacity:1;fill-rule:nonzero;stroke:none;stroke-width:0.25323123"
           id="path24" /><path
           inkscape:connector-curvature="0"
           d="M 537.98217,125.29122 H 0 L 251.22919,589.04371 H 789.21541 L 537.98217,125.29122"
           style="fill:#000000;fill-opacity:1;fill-rule:nonzero;stroke:none;stroke-width:0.25323123"
           id="path26" /></g></g></g></svg>