<?xml version="1.0" encoding="UTF-8" standalone="no"?>
<!-- Generator: Adobe Illustrator 23.0.1, SVG Export Plug-In . SVG Version: 6.00 Build 0)  -->

<svg
   xmlns:dc="http://purl.org/dc/elements/1.1/"
   xmlns:cc="http://creativecommons.org/ns#"
   xmlns:rdf="http://www.w3.org/1999/02/22-rdf-syntax-ns#"
   xmlns:svg="http://www.w3.org/2000/svg"
   xmlns="http://www.w3.org/2000/svg"
   xmlns:sodipodi="http://sodipodi.sourceforge.net/DTD/sodipodi-0.dtd"
   xmlns:inkscape="http://www.inkscape.org/namespaces/inkscape"
   version="1.1"
   id="Calque_1"
   inkscape:version="0.92.5 (2060ec1f9f, 2020-04-08)"
   sodipodi:docname="Deezer_logo.svg"
   x="0px"
   y="0px"
   viewBox="0 0 500 100"
   xml:space="preserve"
   inkscape:export-filename="/home/christian/Dokumente/projekte/2022_10_17_Acosta_landingpage/images/deezer.png"
   inkscape:export-xdpi="96"
   inkscape:export-ydpi="96"
   width="500"
   height="100"><metadata
   id="metadata71"><rdf:RDF><cc:Work
       rdf:about=""><dc:format>image/svg+xml</dc:format><dc:type
         rdf:resource="http://purl.org/dc/dcmitype/StillImage" /><dc:title></dc:title></cc:Work></rdf:RDF></metadata><defs
   id="defs69" /><sodipodi:namedview
   pagecolor="#ffffff"
   bordercolor="#cccccc"
   borderopacity="1"
   objecttolerance="10"
   gridtolerance="10"
   guidetolerance="10"
   inkscape:pageopacity="0"
   inkscape:pageshadow="2"
   inkscape:window-width="1870"
   inkscape:window-height="1016"
   id="namedview67"
   showgrid="false"
   inkscape:zoom="1.2671354"
   inkscape:cx="114.64973"
   inkscape:cy="6.8472344"
   inkscape:window-x="50"
   inkscape:window-y="27"
   inkscape:window-maximized="1"
   inkscape:current-layer="Calque_1"
   fit-margin-top="0"
   fit-margin-left="0"
   fit-margin-right="0"
   fit-margin-bottom="0" />
<style
   type="text/css"
   id="style2">
	.st0{fill-rule:evenodd;clip-rule:evenodd;fill:#40AB5D;}
	.st1{fill-rule:evenodd;clip-rule:evenodd;fill:url(#rect8192_1_);}
	.st2{fill-rule:evenodd;clip-rule:evenodd;fill:url(#rect8199_1_);}
	.st3{fill-rule:evenodd;clip-rule:evenodd;fill:url(#rect8206_1_);}
	.st4{fill-rule:evenodd;clip-rule:evenodd;fill:url(#rect8213_1_);}
	.st5{fill-rule:evenodd;clip-rule:evenodd;fill:url(#rect8220_1_);}
	.st6{fill-rule:evenodd;clip-rule:evenodd;fill:url(#rect8227_1_);}
	.st7{fill-rule:evenodd;clip-rule:evenodd;fill:url(#rect8234_1_);}
	.st8{fill-rule:evenodd;clip-rule:evenodd;fill:url(#rect8241_1_);}
	.st9{fill-rule:evenodd;clip-rule:evenodd;fill:url(#rect8248_1_);}
</style>
<g
   id="g8252"
   transform="matrix(0.49019608,0,0,0.49019608,-7.9999998e-7,45.686274)"
   style="fill:#000000">
	<path
   id="path8175"
   inkscape:connector-curvature="0"
   d="m 254.1,40.1 c 0,40.1 24.7,64.1 61.4,64.1 18.3,0 33.7,-5.1 42.3,-18.5 v 18.5 h 33.5 v -191 H 356.5 V -5.6 C 348.6,-19 334,-25 315.7,-25 279.9,-25.1 254.1,-0.6 254.1,40.1 Z m 103.5,0 C 357.6,63 342,77.3 323.3,77.3 303.9,77.3 289,63 289,40.1 289,16.8 304,2.2 323.3,2.2 342,2.2 357.6,17 357.6,40.1 Z"
   style="fill:#000000"
   sodipodi:nodetypes="sscccccccssssss" />
	<path
   id="path8177"
   inkscape:connector-curvature="0"
   d="m 499.6,54.9 c -4,14.8 -14.1,22.2 -30,22.2 -18.5,0 -33.7,-11.2 -34.1,-31 h 87.7 c 1.1,-4.9 1.6,-10.1 1.6,-15.8 0,-35.5 -24.2,-55.5 -59.9,-55.5 -38.1,0 -64.3,27.1 -64.3,63.9 0,41 28.9,65.6 68.9,65.6 30.2,0 50.7,-12.6 59.7,-37.7 z m -64.1,-32 C 438.8,8.6 450.7,0.2 465,0.2 c 15.6,0 26.2,8.4 26.2,21.6 l -0.2,1.1 z"
   style="fill:#000000"
   sodipodi:nodetypes="csccsssscccsccc" />
	<path
   id="path8179"
   inkscape:connector-curvature="0"
   d="m 628.7,54.9 c -4,14.8 -14.1,22.2 -30,22.2 -18.5,0 -33.7,-11.2 -34.1,-31 h 87.7 c 1.1,-4.9 1.6,-10.1 1.6,-15.8 0,-35.5 -24.2,-55.5 -59.9,-55.5 -38.1,0 -64.3,27.1 -64.3,63.9 0,41 28.9,65.6 68.9,65.6 30.2,0 50.7,-12.6 59.7,-37.7 z m -64.1,-32 c 3.3,-14.3 15.2,-22.7 29.5,-22.7 15.6,0 26.2,8.4 26.2,21.6 l -0.2,1.1 z"
   style="fill:#000000"
   sodipodi:nodetypes="csccsssscccsccc" />
	<path
   id="path8181"
   inkscape:connector-curvature="0"
   d="M 776.7,104.4 V 72.9 H 703.6 L 774.7,3.7 V -25.1 H 662.2 v 30 h 68.7 L 660,74.4 v 30 z"
   style="fill:#000000"
   sodipodi:nodetypes="ccccccccccc" />
	<path
   id="path8183"
   inkscape:connector-curvature="0"
   d="m 878.4,54.9 c -4,14.8 -14.1,22.2 -30,22.2 -18.5,0 -33.7,-11.2 -34.1,-31 H 902 c 1.1,-4.9 1.6,-10.1 1.6,-15.8 0,-35.5 -24.2,-55.5 -59.9,-55.5 -38.1,0 -64.3,27.1 -64.3,63.9 0,41 28.9,65.6 68.9,65.6 30.2,0 50.7,-12.6 59.7,-37.7 z m -64.1,-32 C 817.6,8.6 829.5,0.2 843.8,0.2 859.4,0.2 870,8.6 870,21.8 l -0.2,1.1 z"
   style="fill:#000000"
   sodipodi:nodetypes="csccsssscccsccc" />
	<rect
   id="rect8185"
   x="155.5"
   y="-25.1"
   class="st0"
   width="42.900002"
   height="25.1"
   style="clip-rule:evenodd;fill:#000000;fill-rule:evenodd" />
	
		<linearGradient
   id="rect8192_1_"
   gradientUnits="userSpaceOnUse"
   x1="-111.7225"
   y1="241.8037"
   x2="-111.9427"
   y2="255.82561"
   gradientTransform="matrix(1.8318,0,0,-1.8318,381.8134,477.9528)">
		<stop
   offset="0"
   style="stop-color:#358C7B"
   id="stop10" />
		<stop
   offset="0.5256"
   style="stop-color:#33A65E"
   id="stop12" />
	</linearGradient>
	<rect
   id="rect8192"
   x="155.5"
   y="9.6999998"
   class="st1"
   width="42.900002"
   height="25.1"
   style="clip-rule:evenodd;fill:#000000;fill-rule:evenodd" />
	
		<linearGradient
   id="rect8199_1_"
   gradientUnits="userSpaceOnUse"
   x1="-123.8913"
   y1="223.6279"
   x2="-99.772499"
   y2="235.9171"
   gradientTransform="matrix(1.8318,0,0,-1.8318,381.8134,477.9528)">
		<stop
   offset="0"
   style="stop-color:#222B90"
   id="stop16" />
		<stop
   offset="1"
   style="stop-color:#367B99"
   id="stop18" />
	</linearGradient>
	<rect
   id="rect8199"
   x="155.5"
   y="44.5"
   class="st2"
   width="42.900002"
   height="25.1"
   style="clip-rule:evenodd;fill:#000000;fill-rule:evenodd" />
	
		<linearGradient
   id="rect8206_1_"
   gradientUnits="userSpaceOnUse"
   x1="-208.4319"
   y1="210.77251"
   x2="-185.03191"
   y2="210.77251"
   gradientTransform="matrix(1.8318,0,0,-1.8318,381.8134,477.9528)">
		<stop
   offset="0"
   style="stop-color:#FF9900"
   id="stop22" />
		<stop
   offset="1"
   style="stop-color:#FF8000"
   id="stop24" />
	</linearGradient>
	<rect
   id="rect8206"
   x="0"
   y="79.300003"
   class="st3"
   width="42.900002"
   height="25.1"
   style="clip-rule:evenodd;fill:#000000;fill-rule:evenodd" />
	
		<linearGradient
   id="rect8213_1_"
   gradientUnits="userSpaceOnUse"
   x1="-180.1319"
   y1="210.77251"
   x2="-156.7319"
   y2="210.77251"
   gradientTransform="matrix(1.8318,0,0,-1.8318,381.8134,477.9528)">
		<stop
   offset="0"
   style="stop-color:#FF8000"
   id="stop28" />
		<stop
   offset="1"
   style="stop-color:#CC1953"
   id="stop30" />
	</linearGradient>
	<rect
   id="rect8213"
   x="51.799999"
   y="79.300003"
   class="st4"
   width="42.900002"
   height="25.1"
   style="clip-rule:evenodd;fill:#000000;fill-rule:evenodd" />
	
		<linearGradient
   id="rect8220_1_"
   gradientUnits="userSpaceOnUse"
   x1="-151.83189"
   y1="210.77251"
   x2="-128.4319"
   y2="210.77251"
   gradientTransform="matrix(1.8318,0,0,-1.8318,381.8134,477.9528)">
		<stop
   offset="0"
   style="stop-color:#CC1953"
   id="stop34" />
		<stop
   offset="1"
   style="stop-color:#241284"
   id="stop36" />
	</linearGradient>
	<rect
   id="rect8220"
   x="103.7"
   y="79.300003"
   class="st5"
   width="42.900002"
   height="25.1"
   style="clip-rule:evenodd;fill:#000000;fill-rule:evenodd" />
	
		<linearGradient
   id="rect8227_1_"
   gradientUnits="userSpaceOnUse"
   x1="-123.5596"
   y1="210.77251"
   x2="-100.1596"
   y2="210.77251"
   gradientTransform="matrix(1.8318,0,0,-1.8318,381.8134,477.9528)">
		<stop
   offset="0"
   style="stop-color:#222B90"
   id="stop40" />
		<stop
   offset="1"
   style="stop-color:#3559A6"
   id="stop42" />
	</linearGradient>
	<rect
   id="rect8227"
   x="155.5"
   y="79.300003"
   class="st6"
   width="42.900002"
   height="25.1"
   style="clip-rule:evenodd;fill:#000000;fill-rule:evenodd" />
	
		<linearGradient
   id="rect8234_1_"
   gradientUnits="userSpaceOnUse"
   x1="-152.75549"
   y1="226.0811"
   x2="-127.5083"
   y2="233.4639"
   gradientTransform="matrix(1.8318,0,0,-1.8318,381.8134,477.9528)">
		<stop
   offset="0"
   style="stop-color:#CC1953"
   id="stop46" />
		<stop
   offset="1"
   style="stop-color:#241284"
   id="stop48" />
	</linearGradient>
	<rect
   id="rect8234"
   x="103.7"
   y="44.5"
   class="st7"
   width="42.900002"
   height="25.1"
   style="clip-rule:evenodd;fill:#000000;fill-rule:evenodd" />
	
		<linearGradient
   id="rect8241_1_"
   gradientUnits="userSpaceOnUse"
   x1="-180.9648"
   y1="234.33411"
   x2="-155.899"
   y2="225.2108"
   gradientTransform="matrix(1.8318,0,0,-1.8318,381.8134,477.9528)">
		<stop
   offset="2.669841e-03"
   style="stop-color:#FFCC00"
   id="stop52" />
		<stop
   offset="0.9999"
   style="stop-color:#CE1938"
   id="stop54" />
	</linearGradient>
	<rect
   id="rect8241"
   x="51.799999"
   y="44.5"
   class="st8"
   width="42.900002"
   height="25.1"
   style="clip-rule:evenodd;fill:#000000;fill-rule:evenodd" />
	
		<linearGradient
   id="rect8248_1_"
   gradientUnits="userSpaceOnUse"
   x1="-178.1651"
   y1="257.75391"
   x2="-158.6987"
   y2="239.791"
   gradientTransform="matrix(1.8318,0,0,-1.8318,381.8134,477.9528)">
		<stop
   offset="2.669841e-03"
   style="stop-color:#FFD100"
   id="stop58" />
		<stop
   offset="1"
   style="stop-color:#FD5A22"
   id="stop60" />
	</linearGradient>
	<rect
   id="rect8248"
   x="51.799999"
   y="9.6999998"
   class="st9"
   width="42.900002"
   height="25.1"
   style="clip-rule:evenodd;fill:#000000;fill-rule:evenodd" />
	<path
   id="path8250"
   inkscape:connector-curvature="0"
   d="m 986.1,19.6 v 3.7 h 33.9 v -9.9 c 0,-22.2 -13.9,-38.3 -37.2,-38.3 -15,0 -25.6,7.3 -31.1,19.4 v -19.4 h -35 v 129.3 h 35 V 21.1 c 0,-13.2 7.1,-20.5 18,-20.5 10,0.1 16.4,9.5 16.4,19 z"
   style="fill:#000000"
   sodipodi:nodetypes="sccsscccccscs" />
</g>
</svg>