<?xml version="1.0" encoding="UTF-8" standalone="no"?>
<svg
   xmlns:dc="http://purl.org/dc/elements/1.1/"
   xmlns:cc="http://creativecommons.org/ns#"
   xmlns:rdf="http://www.w3.org/1999/02/22-rdf-syntax-ns#"
   xmlns:svg="http://www.w3.org/2000/svg"
   xmlns="http://www.w3.org/2000/svg"
   xmlns:sodipodi="http://sodipodi.sourceforge.net/DTD/sodipodi-0.dtd"
   xmlns:inkscape="http://www.inkscape.org/namespaces/inkscape"
   width="500.00006"
   height="100"
   version="1.1"
   id="svg1254"
   sodipodi:docname="jamendo-ar21_pur.svg"
   style="fill:#fe1f59"
   inkscape:version="0.92.5 (2060ec1f9f, 2020-04-08)"
   inkscape:export-filename="/home/christian/Dokumente/projekte/2022_10_17_Acosta_landingpage/images/jamendo.png"
   inkscape:export-xdpi="96"
   inkscape:export-ydpi="96">
  <metadata
     id="metadata1260">
    <rdf:RDF>
      <cc:Work
         rdf:about="">
        <dc:format>image/svg+xml</dc:format>
        <dc:type
           rdf:resource="http://purl.org/dc/dcmitype/StillImage" />
        <dc:title></dc:title>
      </cc:Work>
    </rdf:RDF>
  </metadata>
  <defs
     id="defs1258" />
  <sodipodi:namedview
     pagecolor="#ffffff"
     bordercolor="#cccccc"
     borderopacity="1"
     objecttolerance="10"
     gridtolerance="10"
     guidetolerance="10"
     inkscape:pageopacity="0"
     inkscape:pageshadow="2"
     inkscape:window-width="1870"
     inkscape:window-height="1016"
     id="namedview1256"
     showgrid="false"
     showguides="true"
     inkscape:guide-bbox="true"
     fit-margin-top="0"
     fit-margin-left="0"
     fit-margin-right="0"
     fit-margin-bottom="-0.5"
     inkscape:zoom="0.82790419"
     inkscape:cx="235.0754"
     inkscape:cy="17.467913"
     inkscape:window-x="50"
     inkscape:window-y="27"
     inkscape:window-maximized="1"
     inkscape:current-layer="svg1254" />
  <g
     id="g835"
     transform="translate(0,-9.7840112)">
    <path
       style="fill:#000000;stroke-width:6.50187731"
       sodipodi:nodetypes="ccscccccsccccccccccccccccccsccccccccccccccsccccccccccccccccccccccssccccccccccccccscccccccccccccccccsscccccccccccccccccccccccccccccccccsssccccccccccccccccccccsscccccccccccccccccccccccccccsccccc"
       id="path1252-6"
       d="m 231.6464,64.668583 7.94345,-12.35291 c 0.9048,0.15883 0.42575,0.84513 0.42575,1.25181 v 29.15389 c -0.0798,0.47352 -0.0798,0.95618 0,1.42973 0.33832,2.19588 2.1817,3.89922 4.49066,4.14942 1.52102,0.0665 3.00198,-0.47716 4.08482,-1.49964 1.07775,-1.0167 1.6632,-2.44008 1.58338,-3.89523 V 34.199341 c 0,-3.336051 -3.93847,-6.564075 -7.58421,-4.47984 -1.3249,0.90027 -2.37996,2.116137 -3.06028,3.526682 l -6.67278,10.58639 c -2.8075,4.43536 -5.62826,8.87071 -8.46235,13.30607 l -4.92308,7.6062 -0.4657,-0.59732 -20.67691,-32.578897 c -1.05097,-1.703765 -3.06168,-2.6478 -5.11599,-2.40196 -2.11382,0.244645 -3.78471,1.827488 -4.05821,3.844408 -0.0668,0.344394 -0.0668,0.697672 0,1.042116 v 49.271843 c -0.0666,0.33588 -0.0666,0.68078 0,1.0167 0.50468,2.0609 2.29351,3.60745 4.49064,3.88253 1.51702,0.0309 2.98195,-0.52887 4.05821,-1.55047 1.06594,-1.00426 1.65288,-2.38283 1.62328,-3.81262 v -31.13647 l 1.44366,2.24311 14.61619,23.0791 c 0.97799,1.31535 2.56135,2.09695 4.25781,2.09695 1.69647,0 3.27318,-0.7816 4.25779,-2.09695 2.55026,-4.05834 5.14485,-8.13996 7.78377,-12.24489 z m 134.12047,-31.14916 c -0.366,-2.179556 -2.15557,-3.812627 -4.43741,-4.238372 -0.53219,-0.127095 -1.09107,-0.127095 -1.62326,0 -2.7077,0.444805 -4.54388,2.878532 -4.12476,5.464762 v 32.82037 c 0.0994,0.48292 0.0312,0.98492 -0.1865,1.42973 l -0.51886,-0.63544 -11.19668,-13.78265 -16.63195,-20.334002 c -1.55013,-1.887253 -2.75429,-4.257435 -5.54183,-4.82933 -0.53221,-0.127095 -1.09109,-0.127095 -1.62334,0 -3.01373,0.845135 -4.30434,2.332061 -4.30434,4.797556 v 49.246426 c -0.0202,1.825 1.06214,3.49801 2.77421,4.30827 1.61001,0.88962 3.61913,0.76253 5.09605,-0.29865 1.68633,-1.12686 2.59848,-3.03977 2.38172,-4.99453 v -32.04514 c -0.0865,-0.50836 -0.004,-1.01671 0.21958,-1.48058 l 2.3085,2.80863 8.98127,10.88506 18.27525,22.68513 c 0.97875,1.60998 2.66026,2.71724 4.58377,3.01833 2.76094,0.11438 5.16264,-1.79829 5.54181,-4.40994 0.0597,-0.34489 0.0597,-0.69721 0,-1.04212 V 34.599666 c 0.08,-0.355409 0.0873,-0.722348 0.0224,-1.080243 z m -65.15083,54.64765 h 0.81161 c 2.29734,-0.33968 4.10762,-2.0483 4.49068,-4.23837 0.29932,-2.28758 -1.0844,-4.47984 -3.3464,-5.2932 -0.95484,-0.26241 -1.94779,-0.37615 -2.94051,-0.33677 h -24.47568 c -0.0702,-0.10771 -0.11351,-0.2295 -0.12641,-0.35584 v -13.53482 c 0,-0.74346 0.35254,-0.84513 0.9979,-0.84513 h 18.25525 c 2.65625,-0.3853 4.54955,-2.66514 4.33765,-5.2233 -0.2372,-2.55682 -2.50217,-4.5041 -5.18916,-4.46077 h -18.22872 c -0.17359,-0.40212 -0.2198,-0.84394 -0.13286,-1.27088 v -12.23221 c -0.0867,-0.42695 -0.0401,-0.86879 0.13286,-1.27088 h 23.20497 c 0.89982,0.12755 1.81448,0.12755 2.71435,0 2.61988,-0.13351 4.71066,-2.13599 4.84321,-4.638692 0.14496,-2.504969 -1.71691,-4.7089 -4.31098,-5.102565 -0.49892,-0.06356 -0.99794,-0.06356 -1.4969,0 h -20.04489 c -0.49469,0.06627 -0.99855,0.02915 -1.4769,-0.108005 h -8.31602 c -2.77423,0 -5.22912,1.181912 -5.54179,4.359099 -0.0625,0.344775 -0.0625,0.697318 0,1.042116 v 48.293267 c -0.0669,0.34435 -0.0669,0.69768 0,1.04211 0.18771,2.5394 2.43154,4.48964 5.09605,4.42901 l 30.80247,-0.19065 z m -202.58449,0.089 c 1.29883,0.0616 2.60073,-0.0238 3.87858,-0.25417 3.99551,-0.71719 7.63566,-2.66317 10.36507,-5.54102 2.64385,-2.7907 4.34357,-6.27908 4.87651,-10.00815 0.0665,-0.29744 0.0665,-0.60487 0,-0.90231 V 34.281945 c 0.0565,-0.298423 0.0565,-0.603919 0,-0.902321 -0.48114,-2.070668 -2.24284,-3.647408 -4.43742,-3.971483 -0.53223,-0.127095 -1.09106,-0.127095 -1.62329,0 -2.61265,0.53694 -4.3875,2.86102 -4.12474,5.401215 v 35.787857 c 0,0.50835 0,0.9341 -0.18631,1.37891 l -0.26608,0.63543 c -1.05814,3.20642 -4.03174,5.49011 -7.537625,5.78884 -0.79834,0.006 -1.596675,0.14621 -2.36175,0.40669 -2.54802,0.90232 -3.41953,2.82134 -3.180035,5.71894 0.56004,2.03855 2.39362,3.5259 4.590435,3.72366 z M 499.9072,57.272103 c 0.0468,-0.45516 0.0141,-0.91395 -0.0937,-1.35983 l -0.29287,-1.65214 c -1.04123,-7.39082 -5.09049,-14.09177 -11.26981,-18.650097 -4.58243,-3.570476 -10.16737,-5.767905 -16.05321,-6.316255 -0.75842,-0.190655 -1.53011,0 -2.28858,-0.177955 h -1.68316 c -0.83159,0.266885 -1.71638,0 -2.56793,0.19066 -2.14613,0.2826 -4.26898,0.70721 -6.3535,1.270873 -5.16946,1.568784 -9.78986,4.461038 -13.3588,8.362364 -4.33023,4.47354 -7.01601,10.17313 -7.6507,16.23543 -0.1865,0.52742 0,1.11202 -0.1865,1.62037 v 3.76179 c 0.2794,0.59731 0,1.27087 0.20021,1.88725 0.19778,2.01905 0.66721,4.00531 1.3971,5.90957 1.92301,5.35521 5.45661,10.04989 10.15884,13.4967 4.39596,3.51799 9.81022,5.67255 15.52098,6.17646 0.71853,0.20968 1.49687,-0.10805 2.21537,0.19065 h 3.14009 c 0.64533,-0.2669 1.33055,0 1.97594,-0.19065 3.89006,-0.44114 7.65391,-1.59777 11.08352,-3.40595 3.34924,-1.84102 6.33309,-4.23071 8.81498,-7.05971 2.84358,-3.1303 4.92496,-6.82405 6.09399,-10.81516 0.23277,-1.76373 0.66548,-3.49808 1.29059,-5.17246 v -0.35588 c -0.15665,-1.31192 -0.19516,-2.63429 -0.1131,-3.95242 z m -30.72259,21.17915 c -27.67558,0.15248 -27.91515,-39.49882 -0.23948,-39.65132 27.67555,-0.15246 27.91515,39.49881 0.23948,39.65132 z M 412.20335,32.42647 c -4.15793,-2.014339 -8.74835,-3.081874 -13.41197,-3.126359 -4.6304,-0.12709 -9.2607,-0.12709 -13.89107,0 -2.6857,0.04065 -4.81121,2.182933 -4.7101,4.746722 -0.0597,0.344986 -0.0597,0.697114 0,1.042116 v 47.435434 c -0.0663,0.3444 -0.0663,0.69768 0,1.04212 0.2198,0.63544 0,1.14379 0.3323,1.76651 0.86883,1.91016 2.90849,3.08564 5.08275,2.92937 h 6.25362 c 0.48101,-0.12373 0.98193,-0.16034 1.47692,-0.108 h 5.70808 l 3.5127,-0.27964 c 9.36718,-1.08025 16.33271,-5.8778 21.5085,-13.07731 4.61013,-6.41589 6.19765,-14.38219 4.37749,-21.96709 -1.77937,-8.83167 -7.78714,-16.357337 -16.23283,-20.333995 z m 0.13367,40.585413 c -3.55927,3.30428 -8.30265,5.19788 -13.26574,5.29319 l -7.49763,0.1271 c -0.99788,0 -1.19753,-0.29865 -1.19753,-1.16284 v -36.9825 c 0,-1.06118 0.33279,-1.309 1.37046,-1.27088 3.89856,0.13982 7.8304,-0.38126 11.65572,0.61638 7.28489,1.77923 12.97297,7.22492 14.83575,14.18297 1.86368,6.96106 -0.40275,14.33847 -5.90763,19.23471 z m -235.24305,14.61506 c 2.24865,-1.04846 3.30645,-3.53938 2.46155,-5.71894 l -5.76157,-13.57294 c -3.89427,-8.98934 -7.79726,-17.96595 -11.7091,-26.92987 l -4.23118,-9.442594 c -1.8052,-3.101313 -6.37841,-3.346443 -8.53555,-0.457515 -1.84947,3.22802 -3.04698,6.722929 -4.65696,10.078049 l -5.54178,12.75959 -5.7081,12.91845 -5.85447,13.55389 c -0.66528,1.29629 -0.71184,2.74508 -0.31269,4.11128 0.55877,1.86004 2.28235,3.18314 4.30437,3.30428 2.37666,0.27259 4.61417,-1.12712 5.30228,-3.31699 l 3.35966,-7.83495 c 0.2395,-0.93409 1.1842,-1.55047 2.18212,-1.41067 h 22.24697 c 0.67094,-0.0863 1.31012,0.29928 1.51684,0.91503 0.45318,1.28232 0.98406,2.53839 1.59001,3.76179 0.79189,1.97315 1.69125,3.9054 2.69439,5.78884 1.38571,2.16022 4.32971,2.85896 6.61289,1.56953 z m -16.20639,-21.60488 h -14.63617 c -0.7052,0 -1.03784,0 -0.68523,-0.88961 l 7.89022,-18.21165 7.99666,18.31967 c 0.29273,0.63544 0.0199,0.77524 -0.62536,0.77524 z"
       inkscape:connector-curvature="0" />
    <path
       inkscape:connector-curvature="0"
       id="path1368"
       d="M 35.820371,22.222971 3.1549933,40.519183 v 38.26156 L 35.820371,97.345053 68.80609,78.510723 v -37.88392 z"
       style="fill:none;stroke:#000000;stroke-width:6.30998659;stroke-linecap:butt;stroke-linejoin:round;stroke-miterlimit:4;stroke-dasharray:none;stroke-opacity:1" />
    <path
       inkscape:connector-curvature="0"
       id="path1374"
       d="m 20.988692,58.911173 -4.011861,8.08144"
       style="fill:none;stroke:#000000;stroke-width:6.13444662;stroke-linecap:round;stroke-linejoin:miter;stroke-miterlimit:4;stroke-dasharray:none;stroke-opacity:1" />
    <path
       sodipodi:nodetypes="cc"
       style="fill:none;stroke:#000000;stroke-width:6.13444662;stroke-linecap:round;stroke-linejoin:miter;stroke-miterlimit:4;stroke-dasharray:none;stroke-opacity:1"
       d="m 35.25547,49.474493 -8.493641,17.51812"
       id="path1376"
       inkscape:connector-curvature="0" />
    <path
       style="fill:none;stroke:#000000;stroke-width:6.13444662;stroke-linecap:round;stroke-linejoin:miter;stroke-miterlimit:4;stroke-dasharray:none;stroke-opacity:1"
       d="m 44.960883,49.778903 -4.011862,8.08145"
       id="path1378"
       inkscape:connector-curvature="0" />
    <path
       inkscape:connector-curvature="0"
       id="path1380"
       d="m 54.84592,49.474493 -8.493644,17.51812"
       style="fill:none;stroke:#000000;stroke-width:6.13444662;stroke-linecap:round;stroke-linejoin:miter;stroke-miterlimit:4;stroke-dasharray:none;stroke-opacity:1"
       sodipodi:nodetypes="cc" />
    <path
       inkscape:connector-curvature="0"
       d="m 231.6464,64.668583 7.94345,-12.35291 c 0.9048,0.15883 0.42575,0.84513 0.42575,1.25181 v 29.15389 c -0.0798,0.47352 -0.0798,0.95618 0,1.42973 0.33832,2.19588 2.1817,3.89922 4.49066,4.14942 1.52102,0.0665 3.00198,-0.47716 4.08482,-1.49964 1.07775,-1.0167 1.6632,-2.44008 1.58338,-3.89523 V 34.199341 c 0,-3.336051 -3.93847,-6.564075 -7.58421,-4.47984 -1.3249,0.90027 -2.37996,2.116137 -3.06028,3.526682 l -6.67278,10.58639 c -2.8075,4.43536 -5.62826,8.87071 -8.46235,13.30607 l -4.92308,7.6062 -0.4657,-0.59732 -20.67691,-32.578897 c -1.05097,-1.703765 -3.06168,-2.6478 -5.11599,-2.40196 -2.11382,0.244645 -3.78471,1.827488 -4.05821,3.844408 -0.0668,0.344394 -0.0668,0.697672 0,1.042116 v 49.271843 c -0.0666,0.33588 -0.0666,0.68078 0,1.0167 0.50468,2.0609 2.29351,3.60745 4.49064,3.88253 1.51702,0.0309 2.98195,-0.52887 4.05821,-1.55047 1.06594,-1.00426 1.65288,-2.38283 1.62328,-3.81262 v -31.13647 l 1.44366,2.24311 14.61619,23.0791 c 0.97799,1.31535 2.56135,2.09695 4.25781,2.09695 1.69647,0 3.27318,-0.7816 4.25779,-2.09695 2.55026,-4.05834 5.14485,-8.13996 7.78377,-12.24489 z m 134.12047,-31.14916 c -0.366,-2.179556 -2.15557,-3.812627 -4.43741,-4.238372 -0.53219,-0.127095 -1.09107,-0.127095 -1.62326,0 -2.7077,0.444805 -4.54388,2.878532 -4.12476,5.464762 v 32.82037 c 0.0994,0.48292 0.0312,0.98492 -0.1865,1.42973 l -0.51886,-0.63544 -11.19668,-13.78265 -16.63195,-20.334002 c -1.55013,-1.887253 -2.75429,-4.257435 -5.54183,-4.82933 -0.53221,-0.127095 -1.09109,-0.127095 -1.62334,0 -3.01373,0.845135 -4.30434,2.332061 -4.30434,4.797556 v 49.246426 c -0.0202,1.825 1.06214,3.49801 2.77421,4.30827 1.61001,0.88962 3.61913,0.76253 5.09605,-0.29865 1.68633,-1.12686 2.59848,-3.03977 2.38172,-4.99453 v -32.04514 c -0.0865,-0.50836 -0.004,-1.01671 0.21958,-1.48058 l 2.3085,2.80863 8.98127,10.88506 18.27525,22.68513 c 0.97875,1.60998 2.66026,2.71724 4.58377,3.01833 2.76094,0.11438 5.16264,-1.79829 5.54181,-4.40994 0.0597,-0.34489 0.0597,-0.69721 0,-1.04212 V 34.599666 c 0.08,-0.355409 0.0873,-0.722348 0.0224,-1.080243 z m -65.15083,54.64765 h 0.81161 c 2.29734,-0.33968 4.10762,-2.0483 4.49068,-4.23837 0.29932,-2.28758 -1.0844,-4.47984 -3.3464,-5.2932 -0.95484,-0.26241 -1.94779,-0.37615 -2.94051,-0.33677 h -24.47568 c -0.0702,-0.10771 -0.11351,-0.2295 -0.12641,-0.35584 v -13.53482 c 0,-0.74346 0.35254,-0.84513 0.9979,-0.84513 h 18.25525 c 2.65625,-0.3853 4.54955,-2.66514 4.33765,-5.2233 -0.2372,-2.55682 -2.50217,-4.5041 -5.18916,-4.46077 h -18.22872 c -0.17359,-0.40212 -0.2198,-0.84394 -0.13286,-1.27088 v -12.23221 c -0.0867,-0.42695 -0.0401,-0.86879 0.13286,-1.27088 h 23.20497 c 0.89982,0.12755 1.81448,0.12755 2.71435,0 2.61988,-0.13351 4.71066,-2.13599 4.84321,-4.638692 0.14496,-2.504969 -1.71691,-4.7089 -4.31098,-5.102565 -0.49892,-0.06356 -0.99794,-0.06356 -1.4969,0 h -20.04489 c -0.49469,0.06627 -0.99855,0.02915 -1.4769,-0.108005 h -8.31602 c -2.77423,0 -5.22912,1.181912 -5.54179,4.359099 -0.0625,0.344775 -0.0625,0.697318 0,1.042116 v 48.293267 c -0.0669,0.34435 -0.0669,0.69768 0,1.04211 0.18771,2.5394 2.43154,4.48964 5.09605,4.42901 l 30.80247,-0.19065 z m -202.58449,0.089 c 1.29883,0.0616 2.60073,-0.0238 3.87858,-0.25417 3.99551,-0.71719 7.63566,-2.66317 10.36507,-5.54102 2.64385,-2.7907 4.34357,-6.27908 4.87651,-10.00815 0.0665,-0.29744 0.0665,-0.60487 0,-0.90231 V 34.281945 c 0.0565,-0.298423 0.0565,-0.603919 0,-0.902321 -0.48114,-2.070668 -2.24284,-3.647408 -4.43742,-3.971483 -0.53223,-0.127095 -1.09106,-0.127095 -1.62329,0 -2.61265,0.53694 -4.3875,2.86102 -4.12474,5.401215 v 35.787857 c 0,0.50835 0,0.9341 -0.18631,1.37891 l -0.26608,0.63543 c -1.05814,3.20642 -4.03174,5.49011 -7.537625,5.78884 -0.79834,0.006 -1.596675,0.14621 -2.36175,0.40669 -2.54802,0.90232 -3.41953,2.82134 -3.180035,5.71894 0.56004,2.03855 2.39362,3.5259 4.590435,3.72366 z M 499.9072,57.272103 c 0.0468,-0.45516 0.0141,-0.91395 -0.0937,-1.35983 l -0.29287,-1.65214 c -1.04123,-7.39082 -5.09049,-14.09177 -11.26981,-18.650097 -4.58243,-3.570476 -10.16737,-5.767905 -16.05321,-6.316255 -0.75842,-0.190655 -1.53011,0 -2.28858,-0.177955 h -1.68316 c -0.83159,0.266885 -1.71638,0 -2.56793,0.19066 -2.14613,0.2826 -4.26898,0.70721 -6.3535,1.270873 -5.16946,1.568784 -9.78986,4.461038 -13.3588,8.362364 -4.33023,4.47354 -7.01601,10.17313 -7.6507,16.23543 -0.1865,0.52742 0,1.11202 -0.1865,1.62037 v 3.76179 c 0.2794,0.59731 0,1.27087 0.20021,1.88725 0.19778,2.01905 0.66721,4.00531 1.3971,5.90957 1.92301,5.35521 5.45661,10.04989 10.15884,13.4967 4.39596,3.51799 9.81022,5.67255 15.52098,6.17646 0.71853,0.20968 1.49687,-0.10805 2.21537,0.19065 h 3.14009 c 0.64533,-0.2669 1.33055,0 1.97594,-0.19065 3.89006,-0.44114 7.65391,-1.59777 11.08352,-3.40595 3.34924,-1.84102 6.33309,-4.23071 8.81498,-7.05971 2.84358,-3.1303 4.92496,-6.82405 6.09399,-10.81516 0.23277,-1.76373 0.66548,-3.49808 1.29059,-5.17246 v -0.35588 c -0.15665,-1.31192 -0.19516,-2.63429 -0.1131,-3.95242 z m -30.72259,21.17915 c -27.67558,0.15248 -27.91515,-39.49882 -0.23948,-39.65132 27.67555,-0.15246 27.91515,39.49881 0.23948,39.65132 z M 412.20335,32.42647 c -4.15793,-2.014339 -8.74835,-3.081874 -13.41197,-3.126359 -4.6304,-0.12709 -9.2607,-0.12709 -13.89107,0 -2.6857,0.04065 -4.81121,2.182933 -4.7101,4.746722 -0.0597,0.344986 -0.0597,0.697114 0,1.042116 v 47.435434 c -0.0663,0.3444 -0.0663,0.69768 0,1.04212 0.2198,0.63544 0,1.14379 0.3323,1.76651 0.86883,1.91016 2.90849,3.08564 5.08275,2.92937 h 6.25362 c 0.48101,-0.12373 0.98193,-0.16034 1.47692,-0.108 h 5.70808 l 3.5127,-0.27964 c 9.36718,-1.08025 16.33271,-5.8778 21.5085,-13.07731 4.61013,-6.41589 6.19765,-14.38219 4.37749,-21.96709 -1.77937,-8.83167 -7.78714,-16.357337 -16.23283,-20.333995 z m 0.13367,40.585413 c -3.55927,3.30428 -8.30265,5.19788 -13.26574,5.29319 l -7.49763,0.1271 c -0.99788,0 -1.19753,-0.29865 -1.19753,-1.16284 v -36.9825 c 0,-1.06118 0.33279,-1.309 1.37046,-1.27088 3.89856,0.13982 7.8304,-0.38126 11.65572,0.61638 7.28489,1.77923 12.97297,7.22492 14.83575,14.18297 1.86368,6.96106 -0.40275,14.33847 -5.90763,19.23471 z m -235.24305,14.61506 c 2.24865,-1.04846 3.30645,-3.53938 2.46155,-5.71894 l -5.76157,-13.57294 c -3.89427,-8.98934 -7.79726,-17.96595 -11.7091,-26.92987 l -4.23118,-9.442594 c -1.8052,-3.101313 -6.37841,-3.346443 -8.53555,-0.457515 -1.84947,3.22802 -3.04698,6.722929 -4.65696,10.078049 l -5.54178,12.75959 -5.7081,12.91845 -5.85447,13.55389 c -0.66528,1.29629 -0.71184,2.74508 -0.31269,4.11128 0.55877,1.86004 2.28235,3.18314 4.30437,3.30428 2.37666,0.27259 4.61417,-1.12712 5.30228,-3.31699 l 3.35966,-7.83495 c 0.2395,-0.93409 1.1842,-1.55047 2.18212,-1.41067 h 22.24697 c 0.67094,-0.0863 1.31012,0.29928 1.51684,0.91503 0.45318,1.28232 0.98406,2.53839 1.59001,3.76179 0.79189,1.97315 1.69125,3.9054 2.69439,5.78884 1.38571,2.16022 4.32971,2.85896 6.61289,1.56953 z m -16.20639,-21.60488 h -14.63617 c -0.7052,0 -1.03784,0 -0.68523,-0.88961 l 7.89022,-18.21165 7.99666,18.31967 c 0.29273,0.63544 0.0199,0.77524 -0.62536,0.77524 z"
       id="path1382"
       sodipodi:nodetypes="ccscccccsccccccccccccccccccsccccccccccccccsccccccccccccccccccccccssccccccccccccccscccccccccccccccccsscccccccccccccccccccccccccccccccccsssccccccccccccccccccccsscccccccccccccccccccccccccccsccccc"
       style="fill:#000000;stroke-width:6.50187731" />
    <path
       style="fill:none;stroke:#000000;stroke-width:6.30998659;stroke-linecap:butt;stroke-linejoin:round;stroke-miterlimit:4;stroke-dasharray:none;stroke-opacity:1"
       d="M 35.820371,22.222971 3.1549933,40.519183 v 38.26156 L 35.820371,97.345053 68.80609,78.510723 v -37.88392 z"
       id="path1384"
       inkscape:connector-curvature="0" />
    <path
       style="fill:none;stroke:#000000;stroke-width:6.13444662;stroke-linecap:round;stroke-linejoin:miter;stroke-miterlimit:4;stroke-dasharray:none;stroke-opacity:1"
       d="m 20.988692,58.911173 -4.011861,8.08144"
       id="path1386"
       inkscape:connector-curvature="0" />
    <path
       inkscape:connector-curvature="0"
       id="path1388"
       d="m 35.25547,49.474493 -8.493641,17.51812"
       style="fill:none;stroke:#000000;stroke-width:6.13444662;stroke-linecap:round;stroke-linejoin:miter;stroke-miterlimit:4;stroke-dasharray:none;stroke-opacity:1"
       sodipodi:nodetypes="cc" />
    <path
       inkscape:connector-curvature="0"
       id="path1390"
       d="m 44.960883,49.778903 -4.011862,8.08145"
       style="fill:none;stroke:#000000;stroke-width:6.13444662;stroke-linecap:round;stroke-linejoin:miter;stroke-miterlimit:4;stroke-dasharray:none;stroke-opacity:1" />
    <path
       sodipodi:nodetypes="cc"
       style="fill:none;stroke:#000000;stroke-width:6.13444662;stroke-linecap:round;stroke-linejoin:miter;stroke-miterlimit:4;stroke-dasharray:none;stroke-opacity:1"
       d="m 54.84592,49.474493 -8.493644,17.51812"
       id="path1392"
       inkscape:connector-curvature="0" />
  </g>
</svg>
