<?xml version="1.0" encoding="UTF-8" standalone="no"?>
<svg
   xmlns:dc="http://purl.org/dc/elements/1.1/"
   xmlns:cc="http://creativecommons.org/ns#"
   xmlns:rdf="http://www.w3.org/1999/02/22-rdf-syntax-ns#"
   xmlns:svg="http://www.w3.org/2000/svg"
   xmlns="http://www.w3.org/2000/svg"
   xmlns:xlink="http://www.w3.org/1999/xlink"
   xmlns:sodipodi="http://sodipodi.sourceforge.net/DTD/sodipodi-0.dtd"
   xmlns:inkscape="http://www.inkscape.org/namespaces/inkscape"
   height="100"
   width="500"
   viewBox="-18.675 -3.525 67.4375 2.64375"
   version="1.1"
   id="svg17"
   sodipodi:docname="SoundCloud-Logo.wine.svg"
   inkscape:version="0.92.5 (2060ec1f9f, 2020-04-08)"
   inkscape:export-filename="/home/christian/Dokumente/projekte/2022_10_17_Acosta_landingpage/acoster-webpage/images/provider-logos/soundcloud.png"
   inkscape:export-xdpi="96"
   inkscape:export-ydpi="96">
  <metadata
     id="metadata21">
    <rdf:RDF>
      <cc:Work
         rdf:about="">
        <dc:format>image/svg+xml</dc:format>
        <dc:type
           rdf:resource="http://purl.org/dc/dcmitype/StillImage" />
        <dc:title />
      </cc:Work>
    </rdf:RDF>
  </metadata>
  <sodipodi:namedview
     pagecolor="#ffffff"
     bordercolor="#cccccc"
     borderopacity="1"
     objecttolerance="10"
     gridtolerance="10"
     guidetolerance="10"
     inkscape:pageopacity="0"
     inkscape:pageshadow="2"
     inkscape:window-width="1870"
     inkscape:window-height="1016"
     id="namedview19"
     showgrid="false"
     inkscape:zoom="1.668772"
     inkscape:cx="131.22363"
     inkscape:cy="1.595128"
     inkscape:window-x="50"
     inkscape:window-y="27"
     inkscape:window-maximized="1"
     inkscape:current-layer="svg17" />
  <defs
     id="defs3">
    <path
       d="M 0.2,8.5 0,10.3 0.2,12.1 c 0,0.1 0.1,0.1 0.1,0.1 0.1,0 0.1,-0.1 0.1,-0.1 L 0.7,10.3 0.4,8.5 C 0.4,8.4 0.3,8.4 0.3,8.4 c 0,0 -0.1,0 -0.1,0.1 m 1.2,-1.1 -0.3,2.9 0.3,2.9 c 0,0.1 0.1,0.1 0.1,0.1 0.1,0 0.1,-0.1 0.1,-0.1 L 2,10.3 1.6,7.4 C 1.6,7.3 1.5,7.3 1.5,7.3 L 1.4,7.4 M 5.2,7 5,10.3 5.2,13.8 c 0,0.1 0.1,0.2 0.2,0.2 0.1,0 0.2,-0.1 0.2,-0.2 L 6,10.3 5.7,7 C 5.7,6.9 5.6,6.8 5.5,6.8 5.3,6.8 5.2,6.9 5.2,7 M 2.7,6.8 2.4,10.3 2.7,13.6 c 0,0.1 0.1,0.2 0.2,0.2 0,0 0.1,-0.1 0.1,-0.2 L 3.3,10.3 3,6.8 C 3,6.7 2.9,6.6 2.8,6.6 2.8,6.7 2.7,6.7 2.7,6.8 m 1.2,-0.1 -0.3,3.6 0.3,3.4 c 0,0.1 0.1,0.2 0.2,0.2 0.1,0 0.2,-0.1 0.2,-0.2 L 4.6,10.3 4.3,6.7 C 4.3,6.6 4.2,6.5 4.1,6.5 4,6.5 4,6.6 3.9,6.7 M 6.5,4.9 6.2,10.3 6.5,13.8 C 6.5,13.9 6.6,14 6.7,14 6.9,14 7,13.9 7,13.8 L 7.3,10.3 7,4.9 C 7,4.8 6.9,4.7 6.8,4.7 6.6,4.7 6.5,4.8 6.5,4.9 m 1.3,-1.2 -0.2,6.6 0.2,3.5 c 0,0.2 0.1,0.3 0.3,0.3 0.1,0 0.3,-0.1 0.3,-0.3 L 8.7,10.3 8.4,3.7 C 8.4,3.5 8.3,3.4 8.1,3.4 7.9,3.4 7.8,3.5 7.8,3.7 M 69.5,3.3 V 9.1 C 69.4,8.9 69.1,8.4 68.9,8.1 L 65.7,3.3 H 64 v 9.1 h 1.8 v -6 c 0.1,0.2 0.4,0.7 0.6,1 l 3.3,5 h 1.6 V 3.3 Z m 6,1.8 h 1 c 1.9,0 2.7,0.9 2.7,2.8 0,1.7 -0.9,2.8 -2.8,2.8 h -0.9 z m -1.8,7.3 h 2.7 c 2.3,0 4.7,-1.3 4.7,-4.5 0,-3.3 -1.9,-4.5 -4.5,-4.5 H 73.7 V 3.3 Z M 91.6,3.3 v 9.1 h 5.5 V 10.6 H 93.5 V 3.3 Z M 119,5.1 h 1 c 1.9,0 2.7,0.9 2.7,2.8 0,1.7 -0.9,2.8 -2.8,2.8 H 119 Z m -1.8,7.3 h 2.7 c 2,0 4.1,-1 4.6,-3.4 V 6.7 c -0.4,-2.4 -2.1,-3.3 -4.4,-3.3 h -2.9 V 3.3 Z M 36.5,5.9 c 0,1.8 1.2,2.3 2.8,2.7 1.7,0.4 2,0.6 2,1.2 0,0.7 -0.5,1 -1.6,1 -0.9,0 -1.7,-0.3 -2.3,-1 L 36.1,11 c 0.7,1 2,1.7 3.5,1.7 2.5,0 3.6,-1.2 3.6,-2.9 0,-2 -1.6,-2.5 -3,-2.8 -1.4,-0.3 -1.8,-0.5 -1.8,-1.1 0,-0.4 0.3,-0.8 1.3,-0.8 0.8,0 1.5,0.3 2.1,0.9 L 43.1,4.7 C 42.2,3.8 41.2,3.3 39.8,3.3 h -0.3 c -1.7,0 -3,1 -3,2.6 m 10,2 c 0,-1.6 0.6,-2.9 2.1,-2.9 1.5,0 2.1,1.3 2.1,2.9 0,1.6 -0.6,2.9 -2.1,2.9 -1.5,0 -2.1,-1.3 -2.1,-2.9 m -1.9,0 c 0,2.8 1.5,4.7 3.9,4.7 2.5,0 4,-1.9 4,-4.7 0,-2.8 -1.5,-4.7 -4,-4.7 -2.4,0 -3.9,1.9 -3.9,4.7 M 59.9,3.2 v 5.2 c 0,1.5 -0.7,2.4 -1.9,2.4 -1.2,0 -1.9,-0.9 -1.9,-2.4 V 3.3 h -1.8 v 5.1 c 0,2.6 1.5,4.1 3.7,4.1 2.3,0 3.7,-1.5 3.7,-4.2 V 3.2 Z m 22.7,4.7 c 0,2.9 1.6,4.7 4,4.7 1.7,0 2.7,-0.8 3.4,-2.1 L 88.5,9.6 c -0.5,0.8 -1,1.2 -1.8,1.2 -1.4,0 -2.2,-1.2 -2.2,-2.9 0,-1.7 0.8,-2.9 2.1,-2.9 0.8,0 1.3,0.4 1.7,1 L 90,5.2 c -0.6,-1.2 -1.6,-2 -3.3,-2 -2.4,0 -4.1,1.9 -4.1,4.7 m 17.2,0 c 0,-1.6 0.6,-2.9 2.1,-2.9 1.5,0 2.1,1.3 2.1,2.9 0,1.6 -0.6,2.9 -2.1,2.9 -1.5,0 -2.1,-1.3 -2.1,-2.9 m -1.9,0 c 0,2.8 1.5,4.7 3.9,4.7 2.5,0 3.9,-1.9 3.9,-4.7 0,-2.8 -1.5,-4.7 -3.9,-4.7 -2.4,0 -3.9,1.9 -3.9,4.7 m 15.2,-4.7 v 5.2 c 0,1.5 -0.7,2.4 -1.9,2.4 -1.2,0 -1.9,-0.9 -1.9,-2.4 V 3.3 h -1.8 v 5.1 c 0,2.6 1.5,4.1 3.7,4.1 2.3,0 3.7,-1.5 3.7,-4.2 V 3.2 Z m -100,0.2 -0.2,6.9 0.2,3.3 c 0,0.2 0.2,0.4 0.4,0.4 0.2,0 0.4,-0.2 0.4,-0.4 l 0.2,-3.3 -0.2,-7 C 13.9,3.1 13.7,2.9 13.5,2.9 13.2,3 13.1,3.1 13.1,3.4 m -4,-0.3 -0.2,7.2 0.2,3.4 c 0,0.2 0.1,0.3 0.3,0.3 0.2,0 0.3,-0.1 0.3,-0.3 L 9.9,10.3 9.7,3.1 C 9.7,2.9 9.6,2.8 9.4,2.8 9.2,2.8 9.1,3 9.1,3.1 m 2.6,0 -0.2,7.2 0.2,3.4 c 0,0.2 0.2,0.4 0.4,0.4 0.2,0 0.4,-0.2 0.4,-0.4 l 0.2,-3.4 -0.2,-7.2 c 0,-0.2 -0.2,-0.4 -0.4,-0.4 -0.2,0 -0.4,0.2 -0.4,0.4 m -1.3,-0.2 -0.2,7.4 0.2,3.4 c 0,0.2 0.1,0.3 0.3,0.3 0.2,0 0.3,-0.1 0.3,-0.3 L 11.2,10.3 11,2.9 c 0,-0.2 -0.2,-0.3 -0.3,-0.3 -0.1,0 -0.3,0.1 -0.3,0.3 m 4,-0.9 -0.2,8.3 0.2,3.3 c 0,0.2 0.2,0.4 0.4,0.4 0.2,0 0.4,-0.2 0.4,-0.4 L 15.4,10.3 15.2,2 C 15.2,1.8 15,1.6 14.8,1.6 14.6,1.6 14.4,1.8 14.4,2 m 1.4,-0.7 -0.2,9 0.2,3.3 c 0,0.2 0.2,0.4 0.4,0.4 0.2,0 0.4,-0.2 0.4,-0.4 l 0.2,-3.3 -0.2,-9 c 0,-0.2 -0.2,-0.4 -0.4,-0.4 h -0.1 c -0.2,0 -0.3,0.2 -0.3,0.4 M 17.4,0.4 C 17.1,0.5 17,0.6 17,0.9 v 12.7 c 0,0.2 0.2,0.4 0.4,0.5 h 11.1 c 2.2,0 4,-1.8 4,-4 0,-2.2 -1.8,-4 -4,-4 C 28,6.1 27.4,6.2 27,6.4 26.7,2.8 23.7,0 20,0 h -0.5 c -0.7,0 -1.4,0.2 -2.1,0.4"
       id="a"
       inkscape:connector-curvature="0" />
  </defs>
  <clipPath
     id="b">
    <use
       height="100%"
       width="100%"
       xlink:href="#a"
       overflow="visible"
       id="use5"
       style="overflow:visible"
       x="0"
       y="0" />
  </clipPath>
  <linearGradient
     gradientTransform="matrix(0,62.1556,-62.1556,0,940.2602,-35.9782)"
     y2="14.126"
     x2="1"
     y1="14.126"
     x1="0"
     gradientUnits="userSpaceOnUse"
     id="c">
    <stop
       offset="0"
       stop-color="#f8a01d"
       id="stop8" />
    <stop
       offset=".7128"
       stop-color="#f26e23"
       id="stop10" />
    <stop
       offset="1"
       stop-color="#ef5826"
       id="stop12" />
  </linearGradient>
  <path
     clip-path="url(#b)"
     d="M 0,0 H 124.5 V 14.1 H 0 Z"
     id="path15"
     inkscape:connector-curvature="0"
     style="fill:#000000;fill-opacity:1"
     transform="matrix(0.54166667,0,0,0.54166667,-18.675,-6.021875)" />
</svg>
