<?xml version="1.0" encoding="UTF-8" standalone="no"?>
<svg
   xmlns:dc="http://purl.org/dc/elements/1.1/"
   xmlns:cc="http://creativecommons.org/ns#"
   xmlns:rdf="http://www.w3.org/1999/02/22-rdf-syntax-ns#"
   xmlns:svg="http://www.w3.org/2000/svg"
   xmlns="http://www.w3.org/2000/svg"
   xmlns:sodipodi="http://sodipodi.sourceforge.net/DTD/sodipodi-0.dtd"
   xmlns:inkscape="http://www.inkscape.org/namespaces/inkscape"
   height="100"
   width="500"
   version="1.1"
   viewBox="0 0 500 99.999997"
   id="svg4"
   sodipodi:docname="Spotify_logo_with_text.svg"
   inkscape:version="0.92.5 (2060ec1f9f, 2020-04-08)"
   inkscape:export-filename="/home/christian/Dokumente/projekte/2022_10_17_Acosta_landingpage/acoster-webpage/images/provider-logos/spotify-web.png"
   inkscape:export-xdpi="96"
   inkscape:export-ydpi="96">
  <metadata
     id="metadata10">
    <rdf:RDF>
      <cc:Work
         rdf:about="">
        <dc:format>image/svg+xml</dc:format>
        <dc:type
           rdf:resource="http://purl.org/dc/dcmitype/StillImage" />
        <dc:title />
      </cc:Work>
    </rdf:RDF>
  </metadata>
  <defs
     id="defs8" />
  <sodipodi:namedview
     pagecolor="#ffffff"
     bordercolor="#cccccc"
     borderopacity="1"
     objecttolerance="10"
     gridtolerance="10"
     guidetolerance="10"
     inkscape:pageopacity="0"
     inkscape:pageshadow="2"
     inkscape:window-width="1870"
     inkscape:window-height="1016"
     id="namedview6"
     showgrid="false"
     fit-margin-top="0"
     fit-margin-left="0"
     fit-margin-right="0"
     fit-margin-bottom="0"
     inkscape:zoom="1.1333948"
     inkscape:cx="53.286639"
     inkscape:cy="66.335609"
     inkscape:window-x="50"
     inkscape:window-y="27"
     inkscape:window-maximized="1"
     inkscape:current-layer="svg4"
     showguides="true"
     inkscape:guide-bbox="true">
    <sodipodi:guide
       position="390.86115,-18.528407"
       orientation="1,0"
       id="guide824"
       inkscape:locked="false" />
    <sodipodi:guide
       position="367.03891,23.822237"
       orientation="0,1"
       id="guide826"
       inkscape:locked="false" />
  </sodipodi:namedview>
  <g
     id="g818"
     transform="translate(0,29.946418)">
    <path
       sodipodi:nodetypes="csssccccccccccccccccccccccccc"
       style="fill:#000000;fill-opacity:1;stroke-width:0.59707546"
       inkscape:connector-curvature="0"
       id="path2"
       d="M 50.000892,-29.946418 C 22.386748,-29.946418 0,-7.5602667 0,20.053875 0,47.66922 22.386748,70.053582 50.000892,70.053582 c 27.617133,0 50.001488,-22.384362 50.001488,-49.999707 0,-27.6123506 -22.384355,-49.997904 -50.002084,-49.997904 z M 72.930979,42.16836 c -0.895614,1.468807 -2.818197,1.934523 -4.287002,1.03294 -11.739699,-7.170875 -26.51851,-8.794921 -43.923261,-4.818396 -1.677185,0.382127 -3.348997,-0.668729 -3.731124,-2.346507 -0.38392,-1.677784 0.662753,-3.349596 2.344118,-3.731724 19.046707,-4.35149 35.384484,-2.477862 48.564329,5.576686 1.468805,0.901583 1.934524,2.818195 1.03294,4.287001 z M 79.051003,28.553847 C 77.92253,30.388061 75.522287,30.967222 73.689265,29.838749 60.249096,21.57761 39.761645,19.18513 23.864511,24.010695 c -2.061703,0.622748 -4.239237,-0.539159 -4.864972,-2.597279 -0.620958,-2.061697 0.541547,-4.235054 2.599667,-4.861983 18.158856,-5.509813 40.733683,-2.840886 56.168085,6.643662 1.833023,1.128465 2.412184,3.528711 1.283712,5.359347 z M 79.576432,14.376884 C 63.461361,4.8051663 36.873591,3.925077 21.487553,8.5948047 19.016855,9.3441345 16.404052,7.9493661 15.655319,5.4786677 14.906586,3.0067749 16.300161,0.39576392 18.77265,-0.35535693 36.43474,-5.7170947 65.795927,-4.6811688 84.349448,6.3330825 c 2.227096,1.3189401 2.955523,4.1890815 1.63599,6.4084115 -1.313567,2.222315 -4.191468,2.954926 -6.406619,1.63539 z" />
    <path
       sodipodi:nodetypes="csscccccsscsscccccscccccsssssssscscccssscsscsssccsssssccsssscsssscsscssccsscssccccssccsscsscsssscsssscccscccccscccsscccscccsssssssccsssssssssssssssccccccccacccsccsss"
       id="path2-3"
       d="m 135.40578,11.919606 c -10.9758,-2.6171916 -12.92655,-4.4540839 -12.92655,-8.3138342 0,-3.64645802 3.43089,-6.1004533 8.53927,-6.1004533 4.94899,0 9.85242,1.86345774 14.99875,5.6996769 0.15182,0.1161342 0.34916,0.1624361 0.53892,0.1320746 0.19736,-0.028844 0.36434,-0.1343509 0.47821,-0.2929925 l 5.35886,-7.554027 c 0.22013,-0.3112092 0.1594,-0.7400693 -0.13663,-0.9776514 -6.12549,-4.9133071 -13.01764,-7.3020241 -21.07871,-7.3020241 -11.84871,0 -20.12991,7.1115033 -20.12991,17.2865175 0,10.9112895 7.14262,14.7748395 19.48472,17.7571285 10.49762,2.419083 12.27379,4.445732 12.27379,8.067899 0,4.015359 -3.5827,6.512623 -9.35147,6.512623 -6.40634,0 -11.63618,-2.163282 -17.48082,-7.218534 -0.14423,-0.129037 -0.34158,-0.182167 -0.52375,-0.174579 -0.19735,0.01514 -0.37194,0.106267 -0.49339,0.250487 l -6.01164,7.150214 c -0.25048,0.303616 -0.22013,0.743864 0.0683,1.001939 6.80106,6.072374 15.16574,9.275548 24.19839,9.275548 12.76717,0 21.018,-6.975634 21.018,-17.776866 0.0227,-9.113866 -5.43477,-14.161524 -18.80158,-17.413278 z M 183.11944,1.0956059 c -5.53345,0 -10.07255,2.1799813 -13.82223,6.6469684 V 2.7146518 c 0,-0.396981 -0.31881,-0.7203351 -0.71351,-0.7203351 h -9.82966 c -0.3947,0 -0.7135,0.3233541 -0.7135,0.7203351 V 58.581222 c 0,0.3947 0.3188,0.721094 0.7135,0.721094 h 9.82966 c 0.3947,0 0.71351,-0.326394 0.71351,-0.721094 V 40.948573 c 3.74968,4.197525 8.28878,6.25454 13.82223,6.25454 10.28507,0 20.69919,-7.916856 20.69919,-23.051474 0.0151,-15.1376621 -10.39894,-23.0567919 -20.6916,-23.0567919 z m 9.26796,23.0560331 c 0,7.70356 -4.74404,13.085198 -11.5451,13.085198 -6.71756,0 -11.78799,-5.62453 -11.78799,-13.085198 0,-7.461428 5.07043,-13.084442 11.78799,-13.084442 6.6872,-7.73e-4 11.5451,5.500808 11.5451,13.083677 z M 230.4991,1.0956059 c -13.24535,0 -23.62152,10.1985471 -23.62152,23.2207451 0,12.882532 10.30785,22.970258 23.46213,22.970258 13.2909,0 23.69742,-10.163633 23.69742,-23.13497 0,-12.92732 -10.33821,-23.0545148 -23.53803,-23.0545148 z m 0,36.2171321 c -7.04395,0 -12.35727,-5.662485 -12.35727,-13.1649 0,-7.536567 5.13116,-13.005495 12.19788,-13.005495 7.08949,0 12.43317,5.660207 12.43317,13.170214 0,7.535046 -5.16152,13.000181 -12.27378,13.000181 z M 282.31919,1.9943167 h -10.8164 V -9.0619497 c 0,-0.3962222 -0.31881,-0.7195754 -0.71352,-0.7195754 h -9.82965 c -0.39469,0 -0.72108,0.3233532 -0.72108,0.7195754 V 1.9943167 h -4.72126 c -0.39471,0 -0.71352,0.3233541 -0.71352,0.7203351 v 8.4459072 c 0,0.396222 0.31881,0.720335 0.71352,0.720335 h 4.72126 v 21.856733 c 0,8.827712 4.39488,13.306083 13.07077,13.306083 3.52198,0 6.44431,-0.728682 9.19964,-2.292318 0.22772,-0.121442 0.36434,-0.364341 0.36434,-0.622415 v -8.045895 c 0,-0.24289 -0.12903,-0.478194 -0.34157,-0.607231 -0.21253,-0.136633 -0.47819,-0.14422 -0.69832,-0.03037 -1.89002,0.94881 -3.71932,1.389059 -5.76875,1.389059 -3.15004,0 -4.56186,-1.434601 -4.56186,-4.637774 V 11.88469 h 10.8164 c 0.39471,0 0.7135,-0.323354 0.7135,-0.720336 V 2.719206 c 0.0152,-0.3969811 -0.30362,-0.7203351 -0.70591,-0.7203351 z m 37.67906,0.043263 V 0.67964493 c 0,-3.99485853 1.53328,-5.77634043 4.96416,-5.77634043 2.04943,0 3.69656,0.4068495 5.54103,1.0216762 0.22772,0.07135 0.46303,0.035675 0.64519,-0.1001944 0.18977,-0.1358692 0.29604,-0.3537148 0.29604,-0.5844659 v -8.2811914 c 0,-0.316523 -0.19736,-0.59661 -0.50856,-0.689973 -1.94317,-0.579152 -4.43283,-1.173485 -8.16734,-1.173485 -9.0706,0 -13.87538,5.1114179 -13.87538,14.77635209 V 1.9518102 h -4.72126 c -0.3947,0 -0.72109,0.3233532 -0.72109,0.7195754 v 8.4891734 c 0,0.396222 0.32639,0.720335 0.72109,0.720335 h 4.72126 V 45.58634 c 0,0.402301 0.3264,0.721093 0.7211,0.721093 h 9.82206 c 0.4023,0 0.7211,-0.318792 0.7211,-0.721093 V 11.883171 h 9.17687 l 14.05754,33.703169 c -1.594,3.537168 -3.16522,4.243078 -5.30574,4.243078 -1.73062,0 -3.55992,-0.516157 -5.41959,-1.540873 -0.17458,-0.09108 -0.38712,-0.106267 -0.56928,-0.05316 -0.18976,0.06831 -0.34916,0.204937 -0.42507,0.387111 l -3.33221,7.309625 c -0.1594,0.349158 -0.0227,0.75146 0.31121,0.933635 3.47643,1.882435 6.6113,2.687025 10.49002,2.687025 7.25648,0 11.27183,-3.385349 14.8014,-12.478727 L 370.99098,3.0212828 c 0.0911,-0.2216412 0.0607,-0.4721262 -0.0759,-0.6687195 -0.12904,-0.1950748 -0.34917,-0.3127274 -0.58447,-0.3127274 h -10.23193 c -0.31122,0 -0.58448,0.1950757 -0.68316,0.4827537 L 348.93309,32.454843 337.45631,2.5028778 C 337.35004,2.2243081 337.08437,2.0398591 336.78836,2.0398591 H 319.99825 Z M 298.1529,1.9943167 h -9.82965 c -0.3947,0 -0.7211,0.3233541 -0.7211,0.7203351 V 45.58634 c 0,0.402301 0.3264,0.721093 0.7211,0.721093 h 9.82965 c 0.39471,0 0.7211,-0.318792 0.7211,-0.721093 V 2.7176884 c 0,-0.3969817 -0.3188,-0.7203358 -0.7211,-0.7203358 z M 293.295,-17.527593 c -3.89391,0 -7.05154,3.15156 -7.05154,7.044709 0,3.8954256 3.15763,7.0507806 7.05154,7.0507806 3.89392,0 7.04395,-3.155355 7.04395,-7.0507806 0,-3.89239 -3.15763,-7.044709 -7.04395,-7.044709 z m 86.09103,33.306949 c -3.88632,0 -6.91491,-3.123476 -6.91491,-6.9164298 0,-3.7929539 3.06654,-6.9521043 6.95286,-6.9521043 3.88632,0 6.91491,3.1227163 6.91491,6.9126343 0,3.7929538 -3.06654,6.9558998 -6.95286,6.9558998 z m 0.0379,-13.1808385 c -3.54475,0 -6.22418,2.8160621 -6.22418,6.2644087 0,3.4468298 2.66425,6.2249388 6.18623,6.2249388 3.54475,0 6.22417,-2.813784 6.22417,-6.2644088 0,-3.4468291 -2.66425,-6.2249387 -6.18622,-6.2249387 z m 1.53327,6.9361655 1.95834,2.738639 h -1.65468 l -1.76098,-2.5124441 h -1.5105 v 2.5124441 h -1.38147 V 5.0138024 h 3.23354 c 1.69267,0 2.80087,0.8630355 2.80087,2.3158505 0.008,1.190185 -0.68314,1.9173513 -1.67749,2.2050301 z m -1.16889,-3.2752854 h -1.79893 v 2.2961156 h 1.79893 c 0.89568,0 1.4346,-0.4394883 1.4346,-1.1491967 0,-0.7469013 -0.53892,-1.1469189 -1.4346,-1.1469189 z"
       style="fill:#000000;fill-opacity:1;stroke-width:0.75904632"
       inkscape:connector-curvature="0" />
  </g>
  <text
     id="text820"
     y="76.334961"
     x="392.78116"
     style="font-style:normal;font-weight:normal;font-size:32.39064026px;line-height:1.25;font-family:sans-serif;letter-spacing:0px;word-spacing:0px;fill:#000000;fill-opacity:1;stroke:none;stroke-width:0.80976605"
     xml:space="preserve"><tspan
       style="font-style:normal;font-variant:normal;font-weight:normal;font-stretch:normal;font-size:48.5859642px;font-family:Laksaman;-inkscape-font-specification:Laksaman;letter-spacing:-2.08919597px;stroke-width:0.80976605"
       y="76.334961"
       x="392.78116"
       id="tspan818"
       sodipodi:role="line">web</tspan></text>
  <text
     xml:space="preserve"
     style="font-style:normal;font-weight:normal;font-size:32.39064026px;line-height:1.25;font-family:sans-serif;letter-spacing:0px;word-spacing:0px;fill:#000000;fill-opacity:1;stroke:none;stroke-width:0.80976605"
     x="391.89883"
     y="231.62067"
     id="text830"><tspan
       sodipodi:role="line"
       id="tspan828"
       x="391.89883"
       y="231.62067"
       style="font-style:normal;font-variant:normal;font-weight:normal;font-stretch:normal;font-size:48.5859642px;font-family:Laksaman;-inkscape-font-specification:Laksaman;letter-spacing:-2.08919597px;stroke-width:0.80976605">app</tspan></text>
</svg>
